<?xml version="1.0" standalone="no"?>
<!DOCTYPE svg PUBLIC "-//W3C//DTD SVG 20010904//EN"
 "http://www.w3.org/TR/2001/REC-SVG-20010904/DTD/svg10.dtd">
<svg version="1.0" xmlns="http://www.w3.org/2000/svg"
 width="300.000000pt" height="395.000000pt" viewBox="0 0 300.000000 395.000000"
 preserveAspectRatio="xMidYMid meet">
<metadata>
Created by potrace 1.10, written by Peter Selinger 2001-2011
</metadata>
<g transform="translate(0.000000,395.000000) scale(0.100000,-0.100000)"
fill="#000000" stroke="none">
<path d="M1276 3464 c-9 -8 -14 -20 -11 -25 4 -5 0 -6 -8 -3 -8 3 -18 1 -22
-5 -3 -6 -1 -11 4 -11 6 0 3 -9 -6 -20 -10 -11 -22 -20 -27 -20 -5 0 -1 9 9
20 11 12 13 20 6 20 -7 0 -10 4 -7 9 4 5 -3 7 -14 4 -11 -3 -22 -9 -25 -13 -3
-5 -15 -6 -28 -3 -18 4 -19 3 -7 -6 8 -6 10 -11 5 -11 -6 0 -15 4 -21 10 -6 6
-24 2 -52 -11 -44 -22 -56 -35 -22 -24 14 5 20 2 20 -9 0 -20 -10 -20 -37 -1
-20 14 -23 13 -37 -7 -8 -11 -14 -24 -12 -27 2 -3 -15 -7 -37 -9 -31 -2 -49
-10 -70 -32 -15 -17 -32 -30 -36 -30 -5 0 -12 -7 -15 -16 -5 -12 -2 -15 9 -10
9 3 13 2 10 -4 -3 -6 -12 -10 -20 -10 -16 0 -110 -89 -110 -105 0 -5 -21 -31
-48 -56 -41 -40 -47 -52 -47 -87 0 -23 5 -43 13 -45 10 -4 9 -6 0 -6 -7 -1
-13 -6 -13 -12 0 -6 -14 -40 -30 -75 -21 -44 -29 -71 -24 -88 8 -35 21 -24 19
16 -3 46 14 93 29 78 7 -7 8 -13 0 -18 -17 -11 -24 -41 -12 -48 6 -4 8 -3 4 4
-3 6 0 14 7 19 21 12 29 53 11 53 -11 0 -8 9 10 33 15 19 26 39 26 46 0 10 91
75 130 93 12 5 11 7 -3 7 -10 1 -33 -10 -51 -24 -18 -14 -37 -25 -41 -25 -5 0
-17 -8 -28 -17 -16 -14 -19 -15 -15 -3 3 8 -2 20 -11 27 -14 10 -13 15 13 42
17 17 34 31 39 31 6 0 26 12 46 28 20 15 41 28 46 28 39 6 55 18 49 36 -5 17
-2 19 23 17 15 -2 34 0 41 5 11 7 31 8 125 5 18 0 16 -10 -11 -41 -8 -9 -12
-22 -10 -29 2 -7 14 4 26 23 26 42 46 52 62 33 7 -8 16 -13 20 -10 5 3 11 1
15 -5 3 -5 15 -10 26 -10 10 0 19 -4 19 -10 0 -5 8 -10 18 -11 9 0 31 -9 47
-20 17 -11 38 -22 47 -25 9 -3 19 -13 22 -21 3 -8 10 -12 15 -8 5 3 16 -3 23
-12 18 -24 64 -47 77 -38 14 8 10 -17 -4 -27 -5 -4 -2 -10 8 -14 9 -3 24 -1
32 6 13 11 14 10 9 -4 -5 -12 -2 -15 12 -9 12 4 15 3 10 -5 -4 -7 -1 -12 6
-12 8 0 43 -30 78 -66 36 -36 74 -70 85 -76 24 -12 -111 122 -220 219 -44 39
-100 89 -125 112 -60 56 -124 93 -163 95 -18 1 -31 6 -29 11 12 46 23 57 37
35 3 -5 12 -10 18 -10 7 1 6 5 -4 13 -9 7 -15 22 -14 34 2 28 -19 20 -35 -15
-8 -15 -13 -30 -12 -33 1 -7 -165 -1 -186 6 -7 3 -10 10 -6 16 4 8 3 9 -4 5
-7 -4 -12 -2 -12 3 0 6 7 11 15 11 8 0 15 5 15 11 0 8 15 10 45 7 47 -6 67 4
39 20 -11 6 2 9 41 9 43 0 55 -3 51 -13 -6 -16 10 -19 19 -4 13 21 -5 48 -28
43 -21 -4 -22 -4 -3 11 15 12 22 13 28 4 5 -10 10 -8 20 5 14 18 48 15 48 -5
0 -6 -6 -8 -14 -5 -15 6 -36 -11 -36 -29 0 -7 7 -11 15 -10 22 3 31 16 11 16
-9 0 -15 4 -12 8 3 5 44 7 91 6 81 -2 87 -1 82 17 -3 10 0 19 5 19 6 0 5 7 -3
16 -10 13 -10 17 2 25 8 5 21 6 29 3 8 -4 26 -9 40 -11 49 -9 56 -13 40 -23
-9 -5 -19 -5 -27 2 -7 5 -20 8 -28 4 -8 -3 -15 -1 -15 4 0 6 -6 10 -14 10 -9
0 -14 -9 -13 -20 1 -11 4 -20 8 -20 4 0 5 -8 3 -18 -4 -13 8 -24 48 -44 56
-27 75 -41 139 -97 22 -19 41 -32 44 -29 5 5 -83 86 -90 81 -3 -1 -1 2 5 9 7
9 15 7 30 -7 11 -10 20 -15 20 -11 0 4 16 -2 36 -14 19 -12 37 -20 40 -17 3 3
-8 13 -25 22 -17 8 -31 18 -31 21 0 6 52 -21 116 -62 67 -43 227 -201 322
-318 6 -8 12 -20 12 -26 0 -5 6 -10 13 -10 9 0 9 -2 0 -8 -6 -4 -14 -24 -18
-45 -4 -20 -8 -37 -9 -37 -1 0 -64 61 -141 135 -77 74 -144 135 -149 135 -5 0
1 -11 14 -25 13 -14 20 -25 16 -25 -4 0 6 -11 22 -25 17 -14 34 -25 39 -25 14
0 183 -174 183 -188 0 -7 -23 10 -50 37 -28 28 -93 85 -146 128 -53 43 -121
99 -152 125 -79 66 -112 90 -112 83 0 -7 64 -64 98 -87 34 -22 169 -156 195
-193 13 -18 -6 -5 -51 35 -127 113 -263 208 -387 270 -126 63 -193 83 -90 27
88 -48 162 -101 158 -112 -2 -6 13 -26 32 -45 41 -39 47 -26 9 19 -14 17 -22
31 -18 31 5 0 -9 12 -31 26 -56 37 -68 52 -20 24 64 -38 81 -50 66 -50 -7 0
19 -25 58 -55 38 -31 76 -67 83 -82 7 -14 22 -28 32 -29 23 -3 123 -100 114
-110 -4 -3 -26 15 -49 40 -23 25 -47 42 -52 39 -6 -4 -7 -1 -2 8 5 8 5 11 0 7
-4 -4 -35 17 -68 47 -33 30 -62 53 -64 51 -4 -4 45 -51 162 -157 33 -30 87
-86 120 -126 32 -39 62 -71 66 -70 4 1 18 -11 33 -26 19 -20 32 -27 49 -23 12
3 16 3 9 0 -6 -3 -10 -10 -6 -15 8 -13 -10 -11 -25 4 -11 10 -11 8 -1 -11 8
-17 18 -22 31 -19 16 4 18 3 9 -8 -7 -9 -8 -15 -1 -20 6 -3 17 -29 26 -58 29
-97 85 -223 85 -190 0 6 3 20 6 30 4 13 3 15 -4 4 -5 -7 -12 -9 -15 -4 -15 23
-48 125 -43 130 3 3 0 15 -5 26 -14 26 -20 89 -8 82 24 -15 5 18 -27 47 -20
18 -42 38 -48 43 -6 6 -23 16 -38 24 -16 8 -28 18 -28 23 0 5 -6 6 -12 2 -7
-4 -10 -4 -6 1 10 10 -11 37 -23 29 -5 -3 -13 6 -18 19 -6 14 -15 28 -20 32
-6 3 -11 11 -11 17 0 13 68 -44 69 -58 1 -6 12 -21 25 -33 21 -20 24 -20 30
-5 4 11 -3 27 -20 46 -15 15 -24 31 -20 35 4 4 18 -6 31 -22 13 -17 24 -25 25
-19 0 6 -11 21 -25 34 -14 13 -25 26 -25 30 0 4 -22 31 -50 60 -27 30 -47 56
-45 59 6 5 177 -151 182 -165 3 -9 -5 -22 -47 -71 -7 -8 -4 -11 11 -10 12 1
27 14 36 30 13 27 16 28 30 14 19 -19 11 -45 -19 -56 l-22 -8 23 -13 c13 -6
21 -8 18 -3 -3 5 2 17 13 25 21 19 29 13 70 -57 13 -22 38 -55 55 -73 17 -18
49 -67 70 -108 21 -41 43 -77 47 -80 14 -9 9 -24 -8 -24 -8 0 -12 5 -9 10 14
22 -7 28 -38 11 -21 -12 -31 -24 -29 -37 3 -14 1 -16 -11 -6 -7 6 -17 8 -22 4
-4 -4 -5 0 -3 8 3 8 -1 30 -8 49 -20 48 -10 51 15 4 11 -21 20 -33 20 -28 1
20 -78 150 -89 147 -6 -1 -9 1 -6 6 7 12 -23 54 -34 47 -5 -3 -7 -12 -4 -20 4
-8 9 -13 13 -11 4 3 8 -3 9 -12 6 -59 10 -81 21 -115 7 -21 15 -36 17 -34 2 2
-3 23 -11 47 -8 24 -13 45 -11 47 4 5 46 -101 46 -117 0 -4 11 -21 23 -37 30
-35 64 -147 71 -233 l6 -65 -18 60 c-10 33 -31 88 -46 122 -16 34 -26 68 -23
75 3 7 6 3 6 -9 1 -12 6 -25 12 -29 18 -11 2 43 -19 64 -14 14 -21 15 -29 6
-6 -6 -23 -9 -37 -7 -41 8 -107 122 -120 208 -4 22 -12 44 -18 50 -8 7 -9 5
-4 -9 5 -16 4 -17 -9 -6 -24 20 -19 43 9 36 19 -5 14 4 -26 44 -27 28 -55 50
-61 50 -7 0 -23 16 -37 35 -14 19 -29 35 -34 35 -5 0 1 -11 14 -25 13 -14 21
-27 18 -30 -2 -3 -13 4 -23 15 -10 11 -21 20 -25 20 -4 0 13 -20 37 -46 24
-25 42 -53 41 -62 -2 -10 5 -18 17 -20 12 -2 16 0 8 5 -6 4 -10 20 -10 35 2
20 5 24 14 16 7 -6 11 -14 8 -18 -3 -5 5 -16 17 -26 15 -11 17 -14 6 -11 -10
4 -18 2 -18 -3 0 -6 -8 -10 -17 -10 -15 0 -14 -2 2 -14 11 -8 24 -12 30 -9 5
4 7 3 3 -2 -4 -4 -3 -14 3 -21 6 -7 13 -28 16 -46 6 -40 16 -54 11 -16 -5 40
16 35 24 -7 8 -36 35 -91 64 -132 20 -27 8 -29 -43 -8 -44 19 -42 19 -36 -5 4
-13 17 -21 42 -26 20 -3 43 -8 52 -10 19 -5 76 -110 66 -120 -3 -4 0 -22 8
-41 18 -42 18 -46 4 -37 -8 5 -8 1 0 -14 6 -11 11 -32 11 -46 0 -14 5 -28 11
-32 9 -5 10 4 4 32 l-7 39 20 -25 c32 -41 62 -104 71 -151 l9 -44 1 36 c1 32
-22 88 -66 164 -7 11 -24 52 -39 90 -14 39 -35 86 -45 106 l-18 37 34 4 c32 4
35 2 35 -22 0 -15 13 -51 29 -81 46 -84 75 -201 76 -301 0 -47 3 -84 8 -81 8
5 8 136 -1 250 -4 44 -4 92 -1 105 4 16 0 28 -14 39 -11 9 -21 27 -22 41 -2
14 -8 35 -14 46 -7 13 -7 23 -2 27 12 7 15 1 31 -57 7 -26 18 -53 26 -59 7 -6
10 -17 7 -25 -3 -8 0 -20 6 -28 6 -7 8 -16 4 -20 -4 -4 0 -4 10 0 12 4 17 1
17 -13 0 -11 3 -23 7 -27 9 -9 33 -89 29 -94 -2 -2 -12 20 -21 47 -10 32 -21
49 -28 44 -6 -4 -8 0 -4 10 4 11 1 17 -9 17 -11 0 -12 -5 -6 -17 5 -10 8 -23
5 -29 -2 -5 4 -28 12 -50 14 -36 14 -20 -1 34 -4 12 -2 22 4 22 12 0 33 -103
22 -110 -4 -3 -10 -43 -12 -90 -4 -65 -12 -96 -31 -133 -14 -26 -29 -43 -32
-36 -4 5 -13 8 -20 5 -7 -2 -21 4 -30 14 -10 11 -22 17 -26 14 -5 -3 -6 1 -4
8 3 8 -3 23 -13 34 -20 21 -52 105 -52 138 0 17 -2 18 -10 6 -6 -10 -8 -2 -4
25 4 31 3 36 -5 25 -10 -13 -12 -13 -20 0 -30 48 -81 113 -81 102 0 -19 30
-70 58 -98 12 -13 22 -33 22 -45 0 -12 7 -27 16 -34 10 -6 18 -23 20 -36 1
-14 16 -53 32 -87 24 -49 29 -71 26 -108 -3 -25 -1 -43 4 -40 9 6 22 -62 22
-115 0 -16 5 -29 11 -29 6 0 8 8 5 18 -4 13 -1 19 9 19 8 0 13 -3 10 -5 -9
-10 17 -31 31 -25 8 3 14 0 14 -7 0 -6 -6 -8 -12 -4 -10 6 -10 4 0 -7 6 -7 12
-17 12 -22 0 -4 -6 -5 -12 -1 -10 6 -10 4 0 -8 8 -10 9 -19 3 -22 -6 -4 -6
-18 0 -39 5 -17 9 -46 9 -64 0 -17 4 -34 9 -38 6 -3 7 10 4 32 -6 36 -5 37 12
23 17 -14 18 -13 12 3 -4 10 -7 21 -7 23 0 3 -4 3 -9 0 -15 -10 -25 54 -11 67
9 8 11 8 7 1 -4 -6 3 -20 14 -30 24 -22 54 -75 50 -88 -1 -5 5 -3 14 4 9 7 15
9 14 4 -3 -18 1 -31 19 -50 32 -36 47 -58 35 -50 -7 4 -13 2 -13 -3 0 -6 4
-11 9 -11 5 0 11 -9 14 -20 6 -21 23 -25 47 -10 12 8 11 13 -9 33 -19 21 -21
28 -10 45 7 11 18 18 24 16 7 -3 18 2 25 11 19 23 52 18 101 -14 40 -27 112
-95 82 -77 -7 4 -13 2 -13 -3 0 -6 10 -11 23 -11 12 -1 38 -15 57 -32 22 -19
27 -28 15 -23 -43 16 -55 17 -55 4 0 -7 3 -10 6 -6 4 3 21 0 39 -8 19 -7 36
-11 38 -8 3 2 37 -17 76 -43 39 -26 73 -45 76 -42 3 3 -27 27 -67 53 -79 52
-183 130 -210 157 -52 52 -100 77 -163 83 -60 7 -65 9 -89 46 -14 21 -26 43
-26 49 0 5 -5 10 -11 10 -6 0 -9 -7 -5 -15 3 -8 1 -15 -5 -15 -6 0 9 -18 32
-40 27 -25 53 -40 68 -40 18 0 22 -3 14 -11 -7 -7 -20 -8 -34 -3 -13 4 -32 7
-41 5 -11 -1 -18 4 -18 15 0 10 -27 44 -60 76 -56 53 -72 78 -52 78 5 0 -11
21 -36 46 -29 31 -40 49 -33 54 9 5 8 10 -4 20 -21 18 -19 35 7 52 20 13 21
18 9 32 -7 8 -17 14 -21 11 -10 -6 -35 23 -27 32 4 3 9 -1 13 -10 3 -9 11 -14
19 -11 7 3 15 -2 19 -11 9 -23 23 -11 46 42 l20 47 35 -34 c55 -53 85 -123 85
-196 0 -36 5 -66 11 -70 9 -5 10 15 7 72 -5 91 -27 142 -89 209 -39 42 -39 43
-28 86 6 24 11 54 11 67 0 18 3 20 14 11 8 -6 14 -26 14 -43 0 -24 -3 -28 -11
-16 -8 11 -9 9 -3 -10 13 -47 24 -70 32 -70 13 0 -15 154 -29 159 -6 2 -4 10
6 21 15 17 15 23 1 82 -9 34 -41 112 -71 173 -57 115 -58 129 -10 137 11 2 26
10 33 18 12 13 13 13 8 -2 -2 -9 4 -38 14 -65 12 -31 20 -41 21 -28 4 34 -1
56 -18 92 -15 33 -15 35 6 56 l23 22 -3 -25 c-2 -14 2 -34 9 -46 6 -11 10 -29
10 -40 -1 -10 2 -39 5 -64 l7 -45 -15 30 -15 30 6 -35 c4 -19 10 -36 15 -38 5
-2 9 -11 9 -20 0 -14 -2 -14 -9 -3 -6 8 -7 -5 -5 -35 l5 -49 -17 40 c-9 22
-21 52 -26 68 -6 15 -14 27 -19 27 -12 0 -12 -17 0 -25 16 -9 55 -138 54 -175
l-2 -35 8 35 c4 20 10 41 14 47 7 10 21 70 31 128 28 162 29 174 19 222 -6 31
-6 58 -1 67 6 10 5 23 -2 34 -11 16 -11 16 -6 0 3 -10 2 -19 -2 -22 -4 -2 -12
11 -18 30 -6 19 -7 34 -2 34 5 0 7 19 5 43 -3 23 -10 41 -15 40 -6 -2 -9 4 -6
12 4 8 1 15 -6 15 -6 0 -8 5 -4 12 18 28 11 113 -12 160 -28 55 -29 71 -10 87
11 9 12 20 4 51 -6 22 -15 40 -20 40 -6 0 -7 -7 -4 -15 3 -8 9 -21 12 -29 3
-8 -4 -24 -15 -35 -21 -21 -29 -47 -11 -36 6 3 7 -1 4 -10 -4 -9 1 -24 10 -34
18 -20 12 -51 -11 -51 -8 0 -12 -4 -9 -9 3 -5 14 -7 24 -5 24 6 47 -11 36 -27
-5 -8 -9 -18 -10 -24 0 -5 -2 -16 -2 -23 -2 -16 -19 -7 -32 18 -9 16 -8 19 7
14 11 -3 10 0 -3 7 -23 12 -47 53 -37 63 4 3 14 6 24 6 26 0 13 28 -14 32 -25
3 -35 37 -15 49 7 5 8 9 2 9 -6 0 -14 -3 -18 -7 -3 -4 -14 -8 -24 -9 -16 -3
-16 -2 1 10 25 19 21 27 -7 16 -20 -7 -27 -5 -40 15 -15 23 -14 25 17 56 33
33 19 31 -19 -3 -20 -18 -21 -18 -43 8 -12 14 -20 28 -17 31 10 10 108 8 113
-3 4 -12 73 -18 73 -6 -1 23 -84 77 -102 66 -6 -4 -9 -3 -6 2 7 12 -99 130
-108 121 -4 -4 1 -14 12 -23 16 -13 17 -15 2 -10 -12 3 -18 0 -18 -10 0 -12 4
-13 20 -4 17 9 22 7 32 -15 6 -14 18 -25 27 -25 14 0 14 -2 1 -11 -12 -9 -11
-10 5 -4 18 5 18 4 5 -9 -12 -12 -23 -13 -45 -7 -25 8 -26 9 -7 10 12 1 22 5
22 11 0 5 -18 9 -39 7 -32 -2 -41 -7 -46 -24 -5 -21 -12 -17 -116 57 -61 44
-122 83 -135 86 -13 3 -24 12 -24 20 0 8 0 17 -1 21 0 4 5 9 12 12 7 2 9 -1 5
-8 -4 -6 -2 -11 4 -11 7 0 9 8 5 19 -3 11 -1 22 5 26 5 3 10 0 10 -7 1 -7 7 1
15 17 l15 30 -3 -27 c-4 -25 10 -34 24 -15 3 4 13 5 23 1 12 -5 14 -10 6 -19
-8 -9 1 -15 35 -25 25 -7 64 -26 87 -42 30 -22 43 -27 52 -18 8 8 7 13 -4 20
-8 5 -18 6 -24 3 -5 -3 -6 -2 -3 4 9 14 -68 82 -101 89 -15 4 -40 15 -57 24
-31 19 -138 57 -165 59 -62 6 -78 9 -89 15 -19 12 -24 0 -7 -17 8 -8 12 -18 9
-21 -4 -4 4 -5 18 -4 19 2 24 -1 23 -19 0 -17 2 -20 12 -12 8 6 19 9 26 6 7
-2 22 0 32 6 16 8 18 6 13 -7 -4 -10 -3 -15 3 -11 18 11 10 -22 -12 -50 -15
-20 -18 -30 -10 -33 7 -2 10 -8 7 -13 -4 -5 1 -6 9 -3 9 3 16 2 16 -3 0 -5 14
-17 30 -26 17 -10 30 -16 30 -12 0 9 49 -24 137 -94 45 -35 80 -69 76 -74 -4
-7 -58 37 -103 84 -3 3 -22 18 -43 33 -68 52 -48 21 30 -45 42 -35 84 -73 94
-83 33 -34 11 -29 -34 8 -24 20 -47 33 -51 29 -8 -8 -87 67 -81 78 3 4 -11 17
-30 29 -19 12 -34 26 -32 32 1 6 -5 13 -13 15 -13 4 -13 3 0 -6 8 -6 10 -11 5
-11 -6 0 -23 14 -38 31 -17 19 -31 28 -39 23 -10 -6 -10 -4 0 8 11 14 10 17
-8 23 -12 4 -24 4 -27 1 -3 -3 -13 2 -22 12 -16 17 -30 21 -88 25 -18 2 -35 6
-40 10 -4 5 0 5 10 1 9 -3 17 -1 17 4 0 14 -62 26 -89 17 -12 -4 -21 -2 -21 4
0 6 -6 8 -14 5 -8 -3 -23 0 -33 6 -16 10 -16 11 -1 6 10 -3 30 1 45 9 32 17
47 19 39 6 -3 -4 5 -6 19 -4 16 4 22 10 19 22 -5 13 -4 13 6 -1 6 -10 23 -18
37 -18 22 0 24 -3 19 -24 -4 -16 -1 -26 10 -30 12 -4 14 -1 9 13 -3 11 0 29 6
40 16 25 -3 52 -35 50 -20 -2 -20 -2 2 -6 27 -5 29 -19 2 -26 -13 -3 -21 1
-25 13 -4 13 -15 18 -35 18 -31 -1 -40 -13 -17 -21 6 -2 1 -5 -13 -5 -31 -1
-69 -8 -92 -17 -12 -5 -20 -2 -24 9 -9 25 1 30 36 18 26 -9 34 -8 49 7 18 18
18 19 -3 29 -11 6 -37 13 -56 17 -99 17 -103 17 -96 6 4 -6 2 -11 -4 -11 -6 0
-8 -4 -5 -10 3 -5 1 -10 -4 -10 -15 0 -14 33 1 48 7 7 9 12 6 12 -4 0 -14 -7
-22 -16z m-380 -219 c-4 -12 8 -14 79 -13 89 2 105 -3 86 -26 -8 -10 -20 -12
-39 -7 -36 10 -156 3 -160 -9 -2 -6 -8 -10 -13 -10 -6 0 -7 5 -4 10 8 12 3 13
-29 0 -36 -13 -32 -4 7 16 17 9 39 25 47 35 18 22 34 25 26 4z m298 -59 c21
-9 76 -48 122 -87 88 -75 105 -93 80 -83 -9 3 -16 10 -16 14 0 5 -28 26 -62
46 -35 21 -64 42 -66 46 -2 4 -9 8 -16 8 -7 0 -30 9 -52 19 -22 11 -52 23 -67
26 -26 7 -33 16 -21 28 9 9 55 1 98 -17z m380 -150 c120 -86 286 -237 286
-262 0 -6 9 -19 21 -30 11 -10 25 -28 30 -39 6 -11 -9 3 -33 30 -55 64 -210
214 -222 215 -5 0 -30 19 -55 43 -25 23 -59 52 -76 64 -16 12 -26 23 -21 23 5
0 36 -20 70 -44z m650 2 c-3 -4 6 -10 20 -14 14 -3 30 -12 37 -20 16 -19 6
-18 -38 7 -29 16 -41 19 -55 10 -26 -16 -51 -14 -44 4 6 18 5 18 -29 5 -17 -6
-24 -14 -19 -22 5 -9 2 -9 -9 1 -35 28 -19 37 62 36 44 0 77 -3 75 -7z m-187
-95 c3 -8 3 -17 -1 -20 -6 -6 -85 76 -86 90 0 12 81 -53 87 -70z m86 12 c36
-39 113 -154 122 -182 3 -13 12 -22 18 -20 7 1 11 -5 10 -13 -2 -8 8 -37 22
-65 13 -27 25 -43 25 -34 0 9 7 20 16 23 26 10 28 -1 5 -25 -24 -26 -25 -33
-8 -51 18 -20 18 -33 2 -72 -18 -42 -12 -48 8 -9 l14 26 21 -64 c27 -85 33
-133 25 -199 -6 -49 -8 -52 -14 -25 -5 21 -7 6 -9 -50 l-3 -80 -7 73 c-5 41
-11 90 -14 110 l-6 37 15 -30 c12 -24 14 -25 9 -6 -4 14 -15 38 -25 55 -14 24
-16 33 -6 45 7 8 13 35 13 60 1 38 0 42 -8 22 -5 -14 -7 -33 -6 -44 2 -11 -3
-22 -9 -24 -8 -3 -13 4 -13 16 0 12 -5 21 -11 21 -8 0 -9 14 -5 44 9 58 -8
121 -42 155 -14 14 -27 37 -28 51 -3 42 -166 259 -188 252 -6 -2 -5 2 2 9 6 7
12 22 12 32 0 17 2 18 17 6 10 -8 30 -27 46 -44z m21 -135 c37 -54 72 -113 78
-132 6 -18 17 -37 25 -41 20 -12 45 -67 39 -84 -3 -8 -1 -23 4 -34 6 -10 7
-19 3 -19 -5 0 -24 30 -43 68 -19 37 -56 100 -82 141 -26 41 -48 77 -48 81 0
4 -7 10 -15 14 -8 3 -15 11 -15 18 0 7 -11 25 -24 39 -17 18 -23 34 -19 48 8
30 19 19 97 -99z m-80 15 c5 0 10 -9 12 -20 2 -11 11 -26 21 -33 10 -7 17 -18
15 -23 -1 -5 5 -12 14 -16 8 -3 20 -15 25 -27 5 -11 25 -46 44 -76 54 -88 85
-147 78 -154 -3 -3 0 -13 7 -21 11 -13 10 -18 -3 -28 -8 -7 -17 -23 -19 -37
-3 -22 -8 -16 -41 41 -20 36 -47 74 -58 85 -12 10 -41 48 -65 84 -24 36 -55
79 -69 96 -24 30 -25 32 -10 67 8 20 15 46 15 57 0 15 4 19 13 13 6 -4 16 -8
21 -8z m246 -433 c0 -28 -35 -69 -45 -52 -3 4 -1 10 5 12 5 1 10 18 12 36 3
40 28 44 28 4z"/>
<path d="M2232 2743 c17 -35 33 -61 35 -59 5 5 -30 74 -51 101 -9 11 -2 -8 16
-42z"/>
<path d="M2151 2613 c48 -85 53 -93 61 -93 9 0 -75 150 -85 150 -5 0 6 -26 24
-57z"/>
<path d="M1188 3332 c-30 -6 -20 -28 11 -27 24 0 27 2 18 15 -6 8 -11 15 -12
16 0 0 -8 -1 -17 -4z"/>
<path d="M1334 3281 c3 -5 50 -28 103 -51 114 -49 226 -105 266 -133 16 -10
30 -17 33 -14 13 12 -64 54 -320 171 -84 39 -90 41 -82 27z"/>
<path d="M1370 3226 c0 -2 23 -16 50 -30 28 -14 50 -23 50 -18 0 4 -20 18 -45
30 -46 22 -55 25 -55 18z"/>
<path d="M1990 3160 c0 -5 6 -10 13 -10 6 0 23 -3 37 -6 17 -5 22 -3 15 3 -15
15 -65 25 -65 13z"/>
<path d="M660 3010 c-18 -15 -20 -18 -6 -13 14 5 17 3 11 -7 -5 -8 -3 -11 6
-8 8 3 15 14 15 26 1 12 1 22 0 22 0 0 -12 -9 -26 -20z"/>
<path d="M892 2983 c-16 -6 -46 -63 -33 -63 6 0 16 10 22 23 7 12 19 27 28 34
16 12 7 16 -17 6z"/>
<path d="M2290 2960 c0 -5 -6 -7 -14 -4 -8 3 -23 1 -33 -5 -17 -10 -16 -10 4
-11 12 0 28 -2 35 -5 9 -4 14 2 15 15 1 11 0 20 -3 20 -2 0 -4 -4 -4 -10z"/>
<path d="M1100 2915 c0 -6 151 -75 164 -74 12 0 -142 79 -156 79 -4 0 -8 -2
-8 -5z"/>
<path d="M835 2867 c-35 -38 -48 -57 -39 -57 10 0 68 70 62 75 -2 2 -12 -6
-23 -18z"/>
<path d="M710 2860 c-11 -11 -24 -20 -30 -20 -5 0 -10 -7 -10 -15 0 -8 -7 -15
-16 -15 -12 0 -15 -6 -11 -21 4 -14 2 -19 -8 -15 -7 2 -16 -2 -19 -10 -3 -9
-10 -12 -16 -9 -6 3 -7 0 -4 -9 3 -9 -1 -23 -10 -31 -15 -15 -17 -15 -25 7 -8
20 -9 19 -9 -12 2 -62 -11 -137 -32 -190 -11 -28 -22 -70 -24 -93 -3 -40 -6
-44 -67 -77 -70 -39 -82 -60 -50 -94 12 -12 35 -62 51 -112 49 -143 101 -208
183 -228 23 -5 27 -12 27 -39 0 -35 23 -86 80 -175 29 -46 32 -55 21 -78 -8
-18 -8 -23 0 -18 8 4 9 0 4 -15 -4 -12 -2 -21 4 -21 6 0 11 7 11 15 0 8 5 15
11 15 6 0 9 -8 7 -17 -2 -10 1 -22 8 -28 6 -5 23 -31 37 -56 22 -38 24 -49 13
-58 -7 -6 -17 -7 -21 -3 -5 4 -5 1 -1 -6 6 -10 11 -10 22 -1 18 15 17 -1 -1
-25 -8 -11 -15 -14 -15 -8 0 25 -32 10 -75 -33 -47 -49 -63 -81 -47 -97 7 -7
12 1 17 24 8 39 75 114 86 96 4 -6 -3 -20 -17 -30 -13 -11 -24 -28 -24 -38 0
-10 -5 -22 -10 -25 -6 -4 -7 -11 -4 -17 4 -6 2 -8 -4 -4 -6 3 -21 -10 -33 -31
-19 -31 -23 -50 -22 -112 0 -42 4 -101 8 -131 8 -61 43 -178 56 -186 5 -3 9
-13 9 -23 0 -10 11 -28 24 -40 14 -13 30 -36 36 -51 11 -27 9 -31 -62 -103
-40 -40 -93 -100 -117 -133 -25 -32 -51 -64 -59 -71 -10 -9 -11 -16 -3 -32 10
-18 7 -22 -21 -37 l-33 -17 24 27 c14 14 22 28 19 32 -3 3 -20 -15 -38 -39
-18 -25 -79 -89 -136 -142 -57 -53 -104 -102 -104 -108 0 -6 17 6 38 26 22 21
44 37 49 35 14 -4 65 51 58 62 -6 10 23 35 32 27 3 -4 -6 -22 -21 -41 -14 -19
-31 -47 -36 -61 -6 -15 -19 -29 -30 -32 -11 -3 -17 -9 -14 -14 10 -16 41 10
63 52 28 53 74 112 133 171 29 29 51 61 57 86 12 42 25 52 70 52 20 0 27 -5
28 -20 1 -11 -2 -18 -6 -16 -8 5 -31 -36 -31 -54 0 -5 -22 -55 -49 -112 -49
-102 -70 -168 -54 -168 4 0 9 12 10 28 2 25 61 167 63 149 0 -16 -33 -107 -41
-113 -5 -3 -9 -16 -9 -30 0 -35 16 -22 24 19 3 19 22 60 41 92 24 40 32 61 24
65 -8 6 -8 9 0 15 9 5 9 11 -1 23 -7 9 -8 13 -2 9 7 -4 17 5 24 23 7 17 16 30
19 30 16 0 41 71 32 88 -5 10 -9 26 -8 37 1 12 -5 21 -18 23 -16 3 -18 1 -7
-9 15 -16 16 -29 1 -29 -5 0 -7 5 -4 10 3 6 0 10 -8 10 -30 0 -26 -15 10 -37
l38 -23 -37 2 c-20 2 -36 5 -36 8 2 29 -4 34 -17 16 -8 -11 -17 -17 -19 -15
-3 3 24 36 60 74 35 39 63 66 62 60 0 -5 2 -18 5 -27 4 -10 9 -25 12 -34 5
-16 25 -10 25 7 0 6 -4 7 -10 4 -6 -3 -10 5 -10 19 0 17 9 31 28 43 44 29 110
94 87 88 -16 -5 -16 -3 4 12 14 10 54 40 90 66 76 57 161 102 161 87 0 -6 11
-21 25 -34 l25 -23 -46 -94 c-26 -52 -61 -129 -80 -172 -48 -113 -124 -247
-205 -360 -39 -54 -69 -100 -67 -103 5 -5 99 118 129 170 13 22 25 34 27 27 2
-7 11 -2 23 13 23 29 25 43 4 26 -11 -9 -15 -9 -15 -1 0 6 6 14 14 17 8 3 22
26 31 51 10 25 20 40 24 34 4 -5 19 29 35 77 15 48 53 138 83 200 l55 113 -19
22 c-22 24 -73 111 -73 123 0 4 7 -1 15 -12 14 -19 14 -18 15 4 0 12 -9 31
-21 43 -15 15 -18 24 -10 32 8 8 11 6 11 -6 0 -9 5 -17 10 -17 6 0 10 -8 11
-17 0 -10 3 -13 5 -6 5 10 -11 54 -34 97 -3 5 1 7 8 4 8 -2 19 -20 26 -39 7
-19 13 -27 13 -19 1 13 3 13 10 1 6 -10 5 -24 -4 -41 -15 -28 -11 -41 29 -102
18 -28 40 -30 30 -3 -4 8 -11 12 -17 8 -6 -3 -7 -1 -3 6 4 6 0 14 -8 17 -9 3
-14 10 -11 14 3 5 -2 16 -11 24 -9 9 -11 16 -4 16 6 0 8 6 5 13 -4 6 1 3 10
-8 9 -11 19 -19 23 -17 3 2 8 -2 11 -9 2 -7 -1 -9 -8 -5 -18 12 -13 -6 15 -45
24 -35 26 -67 3 -54 -5 4 -9 2 -9 -3 0 -9 43 -32 59 -32 5 0 11 9 14 21 4 15
2 19 -9 15 -8 -3 -14 -1 -14 4 0 17 30 11 37 -6 3 -9 1 -26 -6 -37 -11 -17
-11 -19 3 -14 9 4 16 2 16 -3 0 -15 -41 -12 -74 5 -38 20 -43 19 -21 -5 9 -10
20 -19 24 -18 3 0 22 0 42 -1 34 -1 37 -4 43 -36 5 -27 0 -47 -24 -96 -17 -33
-44 -111 -60 -172 -30 -113 -70 -325 -69 -362 0 -22 26 66 33 117 23 147 72
341 100 392 l21 39 6 -29 7 -29 2 30 c2 30 2 29 15 -10 18 -55 18 -14 0 49 -8
28 -30 109 -50 180 -36 132 -71 223 -81 213 -3 -3 2 -17 11 -31 20 -31 3 -36
-18 -5 -11 15 -17 17 -23 8 -4 -7 -2 -15 4 -17 7 -2 10 -8 6 -13 -3 -5 -2 -8
3 -7 11 3 53 -21 53 -31 0 -5 -9 -19 -20 -32 l-19 -24 3 34 c3 26 0 35 -16 39
-11 2 -26 22 -35 43 -8 21 -19 36 -24 33 -5 -3 -9 2 -9 11 0 12 5 15 18 10 30
-12 102 -16 102 -5 0 5 -19 10 -42 10 -44 0 -146 28 -195 54 -39 20 -57 44
-73 96 -16 51 -56 138 -75 160 -33 39 -135 232 -142 269 -2 14 -19 45 -38 69
-20 27 -31 50 -28 59 4 11 2 14 -5 9 -15 -9 -51 66 -52 105 0 24 4 27 48 31
38 4 87 20 134 46 4 2 8 -14 10 -35 2 -28 8 -38 20 -38 9 0 20 -4 24 -8 14
-14 26 -7 14 8 -7 8 -20 14 -29 13 -13 -2 -17 7 -19 45 -2 37 9 85 48 205 29
86 58 163 65 171 22 23 40 6 80 -76 55 -111 139 -193 221 -216 38 -11 77 -15
105 -11 192 25 270 97 286 266 5 58 10 71 27 79 20 9 20 9 -1 5 -21 -4 -23 0
-23 43 0 27 7 57 17 71 13 20 14 22 2 13 -9 -7 -19 -10 -22 -7 -11 11 -20 -66
-14 -119 4 -34 3 -45 -3 -32 -15 35 -12 128 7 155 15 22 15 23 0 17 -9 -3 -19
-2 -22 4 -4 5 -10 7 -15 4 -12 -7 -50 12 -50 25 0 16 27 11 34 -5 4 -12 10
-14 25 -5 26 13 40 13 21 -1 -13 -9 -13 -10 0 -6 31 8 15 32 -25 36 l-40 5 45
6 c41 6 39 7 -25 9 -38 0 -88 3 -110 6 -22 2 -31 2 -20 -1 17 -6 16 -8 -10
-19 -28 -12 -26 -13 33 -11 46 1 62 -2 62 -12 0 -7 -4 -10 -10 -7 -5 3 -10 2
-10 -3 0 -10 85 -44 92 -37 2 2 1 -49 0 -113 -3 -85 -8 -121 -18 -134 -10 -10
-12 -18 -5 -23 6 -3 9 -16 7 -28 -3 -12 -5 -25 -5 -29 -2 -15 -64 -78 -77 -78
-7 0 -29 -8 -49 -17 -40 -19 -55 -11 -36 19 12 19 11 20 -11 16 -12 -3 -30 -8
-38 -12 -15 -6 -35 33 -47 97 -4 23 -9 26 -27 21 -18 -6 -19 -5 -7 10 12 14
11 16 -7 16 -11 0 -19 -6 -18 -14 0 -8 -3 -15 -9 -14 -5 0 -8 5 -6 11 3 7 4
27 4 45 -1 18 3 30 8 27 5 -4 9 -2 9 4 0 5 -5 11 -12 13 -6 2 -8 9 -4 16 5 9
14 7 33 -5 l25 -17 -6 35 c-6 26 -5 31 4 19 10 -13 11 -13 7 0 -2 8 -11 16
-20 18 -11 2 -14 -2 -10 -17 3 -12 1 -21 -6 -21 -6 0 -11 14 -11 30 0 19 -5
30 -14 30 -14 0 -16 -23 -4 -36 8 -8 -23 -75 -32 -69 -4 3 -6 -11 -4 -30 2
-25 -2 -35 -12 -35 -8 0 -14 -4 -14 -10 0 -5 11 -10 25 -10 15 0 29 -8 36 -22
11 -20 13 -20 24 -5 17 23 32 21 39 -5 9 -34 7 -41 -8 -35 -7 3 -19 0 -25 -6
-8 -8 -11 -6 -11 7 0 9 -5 14 -10 11 -14 -9 -13 -58 2 -73 7 -7 20 -12 30 -12
10 0 18 -5 18 -11 0 -17 -78 -2 -118 22 -18 10 -30 15 -27 9 11 -18 -12 -10
-31 11 -20 23 -27 70 -11 81 7 4 5 18 -3 39 l-14 33 -8 -32 c-6 -20 -5 -40 3
-53 6 -11 8 -23 6 -26 -7 -6 -45 53 -82 127 -31 63 -39 70 -77 70 -23 0 -28
-4 -28 -24 0 -13 -3 -33 -7 -43 -6 -16 -8 -15 -14 7 -5 19 -7 15 -8 -21 -1
-46 -51 -210 -72 -235 -15 -18 -29 -8 -29 21 0 13 -5 27 -11 31 -9 5 -10 -1
-5 -22 13 -51 11 -66 -6 -77 -14 -9 -20 -8 -31 7 -8 12 -21 17 -30 13 -19 -7
-33 8 -42 46 -4 15 -11 27 -15 27 -8 0 9 -55 23 -78 5 -7 17 -10 28 -7 12 4
21 1 25 -9 9 -22 46 -20 72 4 12 12 22 16 22 11 0 -26 -114 -71 -178 -71 -40
0 -99 24 -130 53 -32 29 -75 116 -100 201 -12 37 -31 79 -42 91 -12 13 -19 28
-16 34 12 19 114 68 127 61 15 -10 41 -1 33 11 -5 9 13 13 56 11 21 -1 22 0 6
7 -18 7 -18 8 -2 14 10 4 25 7 34 7 15 0 15 -2 2 -10 -8 -5 -10 -10 -5 -10 6
0 21 7 33 16 33 23 56 15 57 -21 0 -30 -15 -55 -34 -55 -5 0 -17 -10 -25 -22
-16 -22 -16 -21 -16 19 0 35 -3 41 -16 36 -11 -4 -14 -13 -10 -32 4 -14 8 -37
11 -49 4 -28 15 -42 16 -21 0 8 4 6 9 -6 8 -18 9 -18 9 6 1 24 30 75 31 53 0
-7 11 -9 25 -6 20 3 25 0 25 -15 0 -10 5 -24 12 -31 9 -9 8 -18 -2 -38 -13
-23 -12 -27 8 -43 18 -13 20 -19 10 -29 -6 -6 -19 -12 -27 -12 -21 0 -4 -13
19 -15 13 -1 20 5 20 16 0 10 5 21 10 24 16 10 12 28 -5 21 -10 -4 -15 1 -15
14 0 11 5 20 11 20 6 0 8 9 4 20 -5 14 -2 20 9 20 9 0 16 9 16 20 0 11 5 20
11 20 6 0 8 -7 5 -15 -3 -8 -9 -22 -12 -30 -3 -8 -2 -15 4 -15 6 0 13 18 17
41 5 27 11 39 20 35 10 -3 9 2 -2 25 -14 28 -43 40 -43 18 0 -7 -10 -9 -26 -5
-17 5 -23 3 -19 -4 9 -14 55 -13 55 2 0 9 3 9 11 1 14 -14 4 -47 -11 -38 -5 3
-14 -5 -19 -18 -12 -32 -41 -44 -41 -17 0 11 5 19 11 18 6 -2 14 3 17 11 3 10
-1 12 -18 8 -13 -3 -28 0 -37 9 -11 11 -12 14 -1 14 7 0 19 12 25 27 14 30 9
43 -9 25 -18 -18 -30 -14 -19 7 6 10 8 21 5 24 -3 3 14 3 38 0 49 -7 50 2 1
10 -42 7 -170 -9 -222 -28 -43 -15 -47 -12 -32 29 7 16 7 26 0 28 -17 6 66
190 109 240 8 10 12 24 8 33 -3 9 -2 14 3 11 4 -3 14 7 22 22 7 15 28 43 46
62 44 46 46 73 3 30z m927 -615 c-6 -30 -14 -55 -17 -55 -4 0 -2 24 5 54 7 30
10 58 6 62 -3 4 -1 4 5 1 8 -4 8 -22 1 -62z m-31 -103 c-9 -17 -30 -41 -48
-53 l-33 -23 37 37 c20 20 39 46 43 58 4 11 9 18 12 16 2 -3 -3 -19 -11 -35z
m-259 -32 c3 -11 10 -20 16 -20 8 0 8 -3 0 -11 -13 -13 -58 -2 -74 18 -10 12
-10 16 2 24 24 15 51 10 56 -11z m76 -31 c-4 -12 -17 -23 -37 -27 l-31 -6 35
-7 c25 -5 14 -7 -42 -8 -42 0 -79 3 -82 7 -3 5 15 7 39 6 25 -1 45 2 45 6 0 7
58 44 77 50 0 0 -1 -9 -4 -21z m-533 -732 c0 -34 4 -40 30 -50 16 -6 29 -16
28 -22 -1 -12 6 -33 36 -95 11 -25 19 -49 17 -55 -15 -46 -23 -154 -16 -203
11 -72 23 -35 27 80 2 58 6 109 9 112 3 3 20 -1 38 -10 31 -15 31 -17 15 -35
-9 -11 -14 -22 -10 -26 4 -5 12 0 17 10 12 20 26 23 26 5 0 -25 26 -123 39
-150 14 -27 13 -28 -28 -49 -70 -35 -239 -162 -227 -170 7 -4 -10 -22 -42 -47
-30 -23 -55 -39 -58 -36 -4 4 36 43 68 66 19 13 19 16 5 44 -9 16 -22 50 -30
75 -14 46 -37 68 -50 48 -3 -6 2 -13 13 -15 13 -4 24 -25 37 -70 21 -73 16
-94 -9 -41 -9 19 -25 43 -36 53 -10 9 -19 25 -19 34 0 9 -4 20 -9 26 -30 32
-72 251 -64 329 8 68 15 86 38 95 14 5 26 20 30 37 7 32 32 69 41 61 3 -4 -1
-19 -9 -35 -22 -42 -41 -187 -40 -288 1 -27 2 -69 2 -92 1 -24 6 -43 12 -43 7
0 9 10 5 25 -4 14 -3 25 2 25 5 0 5 21 1 48 -5 31 -2 85 9 157 9 61 16 122 16
138 1 31 1 31 27 17 23 -13 25 -3 4 20 -13 14 -12 21 7 59 20 40 22 42 35 25
7 -10 13 -35 13 -57z m427 -489 c-17 -11 -39 -10 -33 1 4 5 0 11 -6 14 -9 3
-7 10 7 26 l20 23 11 -29 c9 -21 9 -30 1 -35z"/>
<path d="M851 1173 c-7 -32 -15 -64 -18 -72 -3 -8 -1 -11 4 -8 6 4 16 28 23
54 7 27 14 56 17 66 2 9 0 17 -4 17 -5 0 -15 -26 -22 -57z"/>
<path d="M1500 2853 c0 -4 28 -26 62 -48 34 -22 82 -57 106 -78 24 -21 47 -35
50 -32 6 6 -3 14 -113 93 -98 71 -105 75 -105 65z"/>
<path d="M682 2638 c-13 -43 -24 -190 -12 -163 5 11 9 40 9 65 1 25 6 62 12
83 13 48 5 61 -9 15z"/>
<path d="M1760 2589 c11 -8 7 -9 -17 -4 -21 4 -33 3 -33 -4 0 -6 -10 -11 -22
-12 -21 -1 -20 -2 6 -13 27 -12 28 -14 10 -24 -15 -9 -16 -12 -4 -15 37 -12
141 -27 150 -22 9 6 -28 50 -45 52 -5 1 -20 4 -33 7 -19 4 -22 2 -17 -14 4
-14 2 -20 -8 -20 -8 0 -17 11 -19 24 -4 21 -1 25 29 28 18 2 33 0 33 -6 0 -5
3 -6 6 -3 10 10 -16 37 -35 37 -14 0 -14 -2 -1 -11z m56 -63 c24 -18 17 -26
-18 -19 -17 3 -25 10 -21 19 7 18 14 18 39 0z"/>
<path d="M1262 2578 c2 -7 -8 -14 -22 -16 -14 -2 -31 -9 -38 -14 -7 -6 -15 -8
-19 -5 -3 4 -18 -2 -32 -12 -14 -10 -34 -21 -43 -24 -10 -4 -18 -13 -18 -22 0
-20 6 -19 43 9 70 52 185 86 210 62 7 -7 26 -9 47 -5 l35 6 -32 2 c-18 0 -33
5 -33 9 0 4 -15 9 -32 10 -18 1 -41 5 -51 8 -11 4 -17 1 -15 -8z"/>
<path d="M1266 2525 c-22 -8 -43 -12 -48 -9 -14 9 -119 -60 -113 -74 3 -7 0
-10 -5 -7 -6 4 -16 -8 -24 -26 -13 -31 -14 -32 -21 -9 -6 18 -2 27 15 40 14
11 20 22 15 30 -5 8 -11 5 -19 -11 -14 -28 -27 -34 -96 -47 -53 -10 -56 -9
-92 19 -21 17 -38 26 -38 21 0 -4 14 -18 31 -31 24 -18 28 -25 18 -37 -15 -18
1 -18 27 0 12 8 45 18 75 22 45 5 52 4 42 -7 -7 -7 -13 -18 -13 -23 0 -6 4 -5
9 3 15 24 28 3 34 -55 3 -31 11 -62 18 -68 9 -8 11 -7 6 5 -16 47 -18 107 -4
140 15 33 15 33 16 7 1 -35 11 -59 22 -52 5 3 9 -2 9 -10 0 -9 4 -16 10 -16 6
0 6 9 0 25 -7 18 -6 24 2 22 7 -1 14 6 16 16 3 16 1 17 -16 8 -27 -15 -39 15
-16 40 26 29 41 23 48 -20 6 -42 17 -46 54 -20 15 11 21 22 17 35 -5 15 -3 15
11 -3 9 -13 26 -23 38 -22 11 0 15 3 9 6 -15 5 -17 49 -4 57 5 4 12 0 14 -6 3
-8 6 -5 6 6 1 16 -4 18 -30 12 -17 -3 -36 -6 -41 -6 -5 0 -6 -4 -3 -10 10 -17
-12 -11 -26 7 -8 9 -9 14 -3 10 6 -4 19 2 29 13 10 11 28 20 41 20 13 0 26 5
29 10 8 13 -2 12 -49 -5z m-61 -25 c-4 -6 -1 -18 6 -26 16 -19 21 -64 8 -64
-6 0 -7 5 -4 10 3 6 1 10 -4 10 -6 0 -11 -5 -11 -11 0 -5 -4 -7 -10 -4 -5 3
-10 15 -10 26 0 11 -7 22 -16 26 -12 4 -9 9 13 24 34 21 36 22 28 9z"/>
<path d="M1378 2533 c-34 -9 -17 -23 27 -23 36 0 45 -3 45 -17 0 -10 3 -29 7
-42 4 -16 2 -22 -4 -18 -6 4 -13 -3 -16 -15 -4 -13 -1 -26 6 -30 8 -5 14 1 18
15 3 12 11 21 17 20 7 -2 12 5 12 15 0 9 3 28 7 41 4 18 3 22 -6 17 -8 -5 -12
-3 -10 5 1 8 1 20 0 27 -1 14 -57 16 -66 2 -3 -5 -11 -10 -16 -10 -6 0 -7 5
-4 10 3 6 5 9 3 9 -2 -1 -11 -3 -20 -6z"/>
<path d="M1340 2492 c-5 -2 -9 -16 -9 -30 2 -25 2 -25 6 -4 3 13 10 21 16 19
15 -5 10 -37 -8 -57 -18 -20 -7 -35 28 -37 24 -1 27 3 27 31 0 18 -6 38 -12
44 -10 10 -10 15 2 22 11 7 17 4 22 -8 6 -14 7 -14 7 4 1 18 -4 21 -34 20 -19
0 -39 -2 -45 -4z"/>
<path d="M1580 2459 c0 -2 7 -22 15 -44 14 -40 14 -40 15 -9 0 17 -7 37 -15
44 -8 7 -15 11 -15 9z"/>
<path d="M1557 2390 c-21 -25 -22 -31 -2 -24 8 4 15 1 15 -4 0 -6 -8 -13 -17
-15 -16 -4 -16 -5 -1 -6 9 0 19 -9 21 -18 3 -10 5 6 4 34 -1 29 -2 53 -2 53 0
0 -8 -9 -18 -20z"/>
<path d="M1230 2376 c0 -8 -3 -16 -7 -19 -5 -2 -2 -2 6 0 9 2 12 -4 9 -22 -3
-14 -2 -25 2 -25 14 0 20 31 10 49 -5 10 -6 21 -3 25 3 3 1 6 -5 6 -7 0 -12
-6 -12 -14z"/>
<path d="M462 2309 c-11 -17 -11 -24 -1 -33 9 -8 10 -8 5 2 -4 7 -1 15 8 18 9
3 16 12 16 20 0 20 -13 17 -28 -7z"/>
<path d="M1360 2319 c0 -6 9 -8 20 -4 18 6 17 3 -6 -20 -20 -20 -29 -24 -35
-14 -12 20 -18 7 -8 -18 5 -13 13 -23 19 -23 6 0 8 4 5 10 -3 6 1 7 9 4 9 -3
16 -11 16 -16 0 -6 7 -8 14 -5 10 4 13 1 9 -9 -3 -7 0 -14 6 -14 11 0 15 13
12 38 -1 6 7 12 19 12 23 0 27 -15 5 -24 -9 -3 -12 -12 -8 -22 6 -16 7 -16 14
2 7 17 8 17 8 -3 1 -13 6 -23 12 -23 8 0 8 48 -1 70 -1 3 -1 15 0 28 1 12 -4
22 -10 22 -7 0 -10 -7 -7 -14 8 -20 -33 -33 -44 -15 -5 8 -6 22 -3 32 4 13 0
17 -20 17 -14 0 -26 -5 -26 -11z"/>
<path d="M509 2313 c-1 -5 0 -18 1 -30 1 -19 -4 -23 -25 -23 -17 0 -28 -7 -34
-23 -9 -23 -4 -77 8 -87 9 -7 31 -73 31 -92 0 -18 59 -102 67 -94 3 3 17 -1
32 -8 41 -21 98 -29 107 -15 5 9 2 10 -9 6 -40 -15 -48 1 -41 83 l7 77 -26 5
c-15 3 -28 0 -31 -6 -2 -6 -5 3 -5 21 -1 22 -5 31 -13 28 -17 -7 -54 71 -49
104 2 14 7 34 12 44 8 13 6 17 -11 17 -11 0 -20 -3 -21 -7z m20 -120 c14 -29
33 -53 41 -53 17 -1 -46 -30 -65 -30 -16 0 -42 95 -36 133 3 24 36 -4 60 -50z
m48 -113 c3 -49 6 -60 15 -60 4 0 8 12 8 26 0 14 -4 23 -10 19 -5 -3 -10 -1
-10 4 0 6 9 11 20 11 11 0 23 0 27 0 12 0 14 -56 3 -82 -8 -20 -9 -18 -10 17
-1 32 -3 36 -10 20 -5 -11 -9 -33 -9 -49 -1 -24 -3 -26 -16 -16 -8 6 -20 8
-27 4 -7 -4 -10 -4 -6 1 4 4 -6 30 -22 59 l-29 51 22 12 c37 21 52 16 54 -17z"/>
<path d="M2220 2257 c0 -16 35 -77 43 -74 5 1 7 7 5 12 -2 6 -6 9 -10 8 -5 -2
-8 3 -8 10 -1 12 -30 56 -30 44z"/>
<path d="M1378 2198 c12 -6 26 -25 30 -42 12 -46 39 -47 34 -2 -2 20 -7 35
-11 34 -3 -1 -19 4 -34 10 -35 15 -50 14 -19 0z"/>
<path d="M658 2171 c-14 -16 -15 -26 -6 -55 13 -42 30 -49 18 -8 -4 16 -4 36
2 46 15 26 5 39 -14 17z"/>
<path d="M817 2167 c-21 -15 -27 -68 -9 -74 6 -3 12 2 12 11 0 9 6 16 14 16 7
0 16 9 19 20 6 25 0 25 -27 3 -20 -18 -20 -18 -3 10 20 30 19 33 -6 14z"/>
<path d="M1013 1920 c-13 -5 -23 -17 -23 -27 0 -15 2 -15 14 3 12 15 27 19 80
19 36 0 66 3 66 8 0 10 -110 8 -137 -3z"/>
<path d="M1430 1745 c0 -3 12 -10 26 -16 26 -9 26 -10 9 -29 -24 -26 -55 -26
-55 0 0 25 -35 27 -45 3 -6 -17 -7 -17 -19 0 -18 23 -53 22 -61 -3 -6 -20 -7
-20 -25 2 l-18 23 -25 -23 c-21 -20 -25 -21 -30 -8 -12 30 -87 12 -87 -20 0
-14 -2 -14 -16 0 -31 32 -95 10 -74 -24 8 -12 10 -10 10 9 0 20 3 22 27 16 32
-8 43 -21 43 -52 0 -20 -5 -23 -40 -23 -44 0 -63 21 -58 67 2 15 -1 28 -7 29
-5 0 -18 4 -27 8 -9 4 -25 3 -35 -3 -16 -9 -15 -10 10 -11 21 0 30 -7 37 -27
6 -16 15 -36 20 -45 13 -23 13 -31 -2 -22 -7 4 -8 3 -4 -4 4 -6 14 -9 24 -6 9
2 7 -1 -6 -7 -33 -18 -22 -33 26 -34 22 -1 38 3 35 8 -3 5 -18 7 -34 5 -28 -4
-28 -4 -10 13 12 12 50 21 116 29 53 6 99 10 101 7 3 -2 -16 -10 -41 -17 -25
-7 -45 -17 -45 -22 0 -6 8 -7 18 -3 9 4 55 20 102 37 105 37 116 43 101 52 -6
4 -21 0 -33 -8 -27 -19 -58 -21 -58 -3 0 8 -3 7 -10 -3 -6 -9 -5 -17 3 -23 11
-7 -21 -2 -65 9 -9 3 -19 0 -23 -6 -3 -5 -23 -10 -44 -10 -37 0 -37 0 -33 36
3 25 11 39 28 46 26 12 54 -3 54 -28 0 -21 17 -17 23 6 7 28 35 36 51 14 13
-17 14 -17 27 4 18 28 35 28 50 0 l12 -22 17 22 c23 28 28 28 32 0 2 -13 9
-22 16 -20 6 1 12 -3 12 -10 0 -7 16 5 35 26 36 39 45 61 23 53 -7 -2 -23 0
-35 4 -13 5 -23 6 -23 4z"/>
<path d="M831 1703 c5 -16 12 -34 15 -42 2 -8 7 -11 10 -8 8 7 -18 77 -28 77
-4 0 -3 -12 3 -27z"/>
<path d="M2171 1421 c-15 -26 -14 -28 9 -34 16 -4 20 0 20 18 0 32 -16 40 -29
16z"/>
<path d="M2170 1371 c0 -7 -5 -9 -11 -5 -7 4 -10 2 -8 -5 3 -7 9 -13 14 -13 6
-1 16 -8 23 -17 11 -14 12 -13 6 9 -7 29 -24 51 -24 31z"/>
<path d="M2157 1323 c-4 -3 -7 -18 -7 -32 0 -47 -15 -56 -39 -25 -11 14 -21
23 -21 18 0 -5 13 -25 29 -45 21 -25 31 -51 36 -92 4 -31 10 -57 14 -57 11 0
12 70 1 91 -9 15 -7 19 7 19 13 0 14 3 5 8 -8 6 -11 26 -7 65 4 52 -1 67 -18
50z"/>
<path d="M2496 1193 c3 -47 -25 -130 -37 -111 -6 10 -9 8 -10 -7 -1 -11 -3
-24 -4 -30 -2 -5 -4 -19 -5 -30 -1 -13 -3 -15 -7 -6 -3 7 -36 -45 -75 -118
-38 -72 -66 -136 -62 -143 4 -7 3 -8 -4 -4 -7 4 -17 -7 -26 -28 -8 -19 -30
-68 -50 -108 -48 -102 -78 -179 -72 -185 3 -3 10 7 16 23 34 93 47 117 68 127
12 5 22 16 22 22 0 7 25 50 56 96 42 63 61 83 76 81 11 -1 28 4 39 11 17 13
16 14 -17 15 -19 1 -38 4 -43 6 -4 3 -19 -21 -34 -53 -16 -35 -35 -61 -46 -64
-14 -3 -18 -1 -14 9 3 8 10 11 16 7 6 -4 8 0 4 11 -4 10 -3 15 3 11 13 -8 31
30 24 52 -5 15 -4 16 6 3 9 -12 10 -11 5 8 -5 16 -3 22 7 20 7 -2 13 5 13 14
0 17 77 170 82 164 5 -5 -37 -119 -52 -143 -21 -31 -19 -41 3 -17 10 10 29 53
42 94 13 41 39 108 57 149 36 78 48 161 25 161 -4 0 -7 -17 -6 -37z"/>
<path d="M2180 1053 c1 -14 70 -103 80 -103 16 0 12 10 -25 53 -19 22 -35 44
-35 49 0 4 -4 8 -10 8 -5 0 -10 -3 -10 -7z"/>
<path d="M1964 983 c-63 -105 -239 -464 -275 -561 -17 -48 -46 -110 -63 -138
-29 -47 -35 -52 -86 -63 -34 -7 -64 -20 -78 -36 -13 -13 -49 -33 -80 -44 -77
-28 -105 -43 -109 -61 -3 -11 0 -10 10 3 10 12 17 14 22 8 9 -16 34 -13 51 4
12 12 12 15 2 16 -7 0 -4 4 7 9 27 12 43 12 25 0 -8 -5 -11 -12 -7 -17 9 -8
28 17 22 28 -3 3 7 11 20 17 25 12 25 11 9 -13 -9 -13 -13 -29 -9 -35 4 -6 1
-9 -6 -8 -6 2 -13 -2 -16 -8 -2 -6 3 -11 11 -11 14 0 19 7 50 79 17 39 36 58
36 37 0 -8 6 -7 18 3 38 34 73 31 155 -12 82 -43 87 -44 87 -32 0 4 -29 20
-65 36 -83 36 -95 50 -64 76 13 10 20 19 15 20 -4 0 -2 10 6 23 8 12 31 65 51
117 37 98 238 509 279 570 37 54 40 60 31 60 -5 0 -27 -30 -49 -67z"/>
<path d="M2796 994 c-4 -10 -14 -13 -33 -9 -21 4 -23 3 -8 -3 14 -6 2 -10 -46
-15 -68 -6 -119 -23 -119 -40 0 -5 7 -4 15 3 9 7 18 10 21 8 3 -3 26 0 51 8
25 8 56 11 69 8 14 -4 31 0 41 7 12 10 15 10 9 2 -4 -8 -1 -13 9 -13 12 0 14
4 5 19 -8 16 -6 20 8 23 16 3 16 4 0 10 -10 4 -19 1 -22 -8z"/>
<path d="M2554 711 c7 -11 61 -19 201 -29 61 -5 120 -14 132 -20 26 -15 36
-15 28 -2 -10 17 -88 33 -152 31 -34 -1 -81 3 -105 8 -76 17 -109 21 -104 12z"/>
<path d="M1184 454 c-4 -10 -22 -57 -41 -103 -39 -98 -39 -100 -14 -77 11 10
17 24 15 31 -3 7 2 19 10 28 9 9 16 22 16 30 0 8 7 34 15 57 8 24 13 45 10 48
-2 3 -8 -4 -11 -14z"/>
<path d="M1093 195 c-11 -30 -17 -53 -12 -49 5 3 9 0 9 -5 0 -35 -60 31 -61
67 0 26 -1 25 -13 -8 -12 -34 -12 -35 16 -49 32 -15 36 -29 11 -37 -45 -15
-73 -30 -73 -38 0 -4 11 -1 25 8 27 18 60 22 50 6 -4 -6 1 -7 11 -3 13 5 15 3
9 -7 -6 -9 -4 -11 4 -6 7 5 10 14 7 22 -3 7 -1 16 4 19 16 10 39 65 27 65 -6
0 0 11 13 25 13 14 18 25 11 25 -7 0 -9 5 -6 10 3 6 3 10 -2 10 -4 0 -18 -25
-30 -55z"/>
<path d="M1800 134 c0 -8 67 -34 87 -34 10 1 -4 10 -32 20 -56 22 -55 22 -55
14z"/>
</g>
</svg>
