<?xml version="1.0" standalone="no"?>
<!DOCTYPE svg PUBLIC "-//W3C//DTD SVG 20010904//EN"
 "http://www.w3.org/TR/2001/REC-SVG-20010904/DTD/svg10.dtd">
<svg version="1.0" xmlns="http://www.w3.org/2000/svg"
 width="300.000000pt" height="395.000000pt" viewBox="0 0 300.000000 395.000000"
 preserveAspectRatio="xMidYMid meet">
<metadata>
Created by potrace 1.10, written by Peter Selinger 2001-2011
</metadata>
<g transform="translate(0.000000,395.000000) scale(0.100000,-0.100000)"
fill="#000000" stroke="none">
<path d="M30 1975 l0 -1945 1470 0 1470 0 0 1945 0 1945 -1470 0 -1470 0 0
-1945z m2910 5 l0 -1910 -1435 0 -1435 0 0 1910 0 1910 1435 0 1435 0 0 -1910z"/>
<path d="M1276 3464 c-9 -8 -14 -20 -11 -25 4 -5 0 -6 -8 -3 -8 3 -18 1 -22
-5 -3 -6 -1 -11 5 -11 21 0 -28 -41 -52 -44 -13 -1 -29 -6 -36 -10 -17 -10
-15 -35 3 -32 22 3 31 16 11 16 -9 0 -15 4 -12 8 3 5 44 7 91 6 81 -2 87 -1
82 17 -3 10 0 19 6 19 7 0 4 7 -6 15 -18 13 -18 14 2 25 15 7 27 8 40 0 11 -5
31 -10 45 -10 29 0 43 -15 21 -24 -8 -3 -17 0 -21 5 -3 6 -15 9 -25 6 -11 -3
-19 -1 -19 4 0 5 -6 9 -14 9 -9 0 -14 -9 -13 -20 1 -11 4 -20 8 -20 4 0 5 -8
3 -17 -4 -14 11 -26 61 -52 36 -18 65 -37 65 -42 0 -5 5 -9 12 -9 7 0 29 -17
50 -37 21 -20 40 -35 42 -32 6 6 -82 87 -89 82 -3 -1 -1 2 5 9 7 9 15 7 30 -7
11 -10 20 -15 20 -11 0 4 16 -2 36 -14 19 -12 37 -20 40 -17 3 3 -8 13 -25 22
-17 8 -31 18 -31 21 0 2 14 -3 31 -12 77 -39 147 -92 227 -170 47 -46 90 -84
94 -84 4 0 8 -7 8 -15 0 -8 12 -25 26 -37 14 -13 35 -39 47 -58 11 -19 26 -38
31 -42 8 -5 7 -8 -1 -8 -6 0 -14 -18 -18 -40 -4 -22 -8 -40 -9 -40 -1 0 -64
61 -141 135 -77 74 -144 135 -149 135 -5 0 1 -11 14 -25 13 -14 20 -25 16 -25
-4 0 6 -11 22 -25 17 -14 34 -25 39 -25 14 0 183 -174 183 -189 0 -8 -22 9
-49 36 -28 28 -93 86 -146 130 -53 43 -122 99 -153 125 -79 66 -112 90 -112
83 0 -7 64 -64 98 -87 34 -22 169 -156 195 -193 13 -18 -6 -5 -51 35 -127 113
-263 208 -387 270 -126 63 -193 83 -90 27 88 -48 162 -101 158 -112 -2 -6 13
-26 32 -45 41 -39 47 -26 9 19 -14 17 -22 31 -18 31 5 0 -9 12 -31 26 -56 37
-68 52 -20 24 68 -40 81 -50 65 -50 -9 0 -5 -7 11 -18 56 -38 120 -96 132
-120 6 -14 21 -27 31 -28 23 -3 123 -100 114 -110 -4 -3 -26 15 -49 40 -23 25
-47 42 -52 39 -6 -4 -7 -1 -2 8 5 8 5 11 0 7 -4 -4 -35 17 -68 47 -33 30 -62
53 -64 51 -4 -4 48 -54 162 -157 33 -30 87 -86 120 -126 33 -39 62 -71 66 -70
4 1 18 -11 33 -26 19 -20 32 -27 49 -23 12 3 16 3 9 0 -6 -3 -10 -10 -6 -15 8
-13 -10 -11 -25 4 -11 10 -11 8 -2 -10 12 -24 35 -30 46 -13 3 6 11 10 17 10
5 0 0 -9 -13 -20 -13 -10 -19 -19 -12 -20 6 0 14 -13 18 -30 4 -16 11 -30 16
-30 6 0 7 -5 3 -11 -3 -6 6 -43 22 -82 29 -74 54 -120 54 -100 0 6 3 20 6 30
4 13 3 15 -4 4 -5 -7 -12 -9 -15 -4 -15 23 -48 125 -43 130 3 3 0 15 -5 26
-14 26 -20 89 -8 82 24 -15 5 18 -27 47 -20 18 -42 38 -48 43 -6 6 -28 19 -49
29 -21 10 -36 20 -33 23 9 9 -15 34 -25 27 -5 -3 -13 6 -18 19 -6 14 -15 28
-20 32 -6 3 -11 11 -11 17 0 13 68 -44 69 -58 1 -6 12 -21 25 -33 35 -33 43
-1 9 39 -14 17 -22 34 -18 38 4 4 18 -6 31 -23 13 -16 24 -25 24 -19 0 6 -11
21 -25 34 -14 13 -25 26 -25 30 0 4 -22 31 -50 60 -27 30 -47 56 -45 59 6 5
177 -151 182 -165 3 -9 -5 -22 -47 -71 -7 -8 -4 -11 11 -10 12 1 27 14 36 30
13 27 16 28 30 14 19 -19 11 -45 -19 -56 l-22 -8 23 -13 c13 -6 21 -8 18 -3
-3 5 2 17 13 25 21 19 29 13 70 -57 13 -22 38 -55 55 -73 17 -18 49 -67 70
-108 21 -41 43 -77 47 -80 14 -9 9 -24 -8 -24 -8 0 -12 5 -9 10 14 22 -7 28
-38 11 -21 -12 -31 -24 -29 -37 3 -14 1 -16 -11 -6 -7 6 -17 8 -22 4 -4 -4 -5
0 -3 8 3 8 -1 30 -8 49 -20 48 -10 51 15 4 11 -21 20 -33 20 -28 1 20 -78 150
-89 147 -6 -1 -9 1 -6 6 7 12 -23 54 -34 47 -5 -3 -7 -12 -4 -20 4 -8 9 -13
13 -11 4 3 8 -3 9 -12 6 -59 10 -81 21 -115 7 -21 15 -36 17 -34 2 2 -3 23
-11 47 -17 49 -19 61 -5 40 13 -21 55 -143 52 -153 -1 -5 2 -6 7 -3 14 9 27
-14 51 -94 22 -74 31 -164 34 -332 0 -47 4 -84 9 -81 9 5 8 142 -2 248 -4 44
-4 92 0 107 6 21 3 30 -13 40 -11 8 -22 25 -23 40 -2 14 -8 35 -14 46 -10 19
-7 23 21 36 18 8 40 16 48 18 8 2 21 10 28 18 12 13 13 13 8 -2 -2 -9 3 -37
13 -63 15 -40 19 -44 24 -25 5 21 -1 43 -26 98 -9 19 -7 26 12 45 l23 22 -3
-25 c-2 -14 2 -34 9 -46 6 -11 10 -29 10 -40 -1 -10 2 -39 5 -64 l7 -45 -15
30 -15 30 6 -35 c4 -19 11 -38 16 -41 5 -3 6 -26 1 -55 l-9 -49 -17 55 c-20
64 -33 87 -43 77 -4 -3 -2 -13 5 -20 20 -25 53 -131 53 -172 l0 -40 7 35 c4
20 10 41 14 47 7 10 21 70 31 128 28 162 29 174 19 222 -6 31 -6 58 -1 67 6
10 5 23 -2 34 -11 16 -11 16 -6 0 3 -10 2 -19 -2 -22 -4 -2 -12 11 -18 30 -6
19 -7 34 -2 34 5 0 7 19 5 43 -3 23 -10 41 -15 40 -6 -2 -9 4 -6 12 4 8 1 15
-6 15 -6 0 -8 5 -4 12 18 28 11 113 -12 160 -28 55 -29 71 -10 87 11 9 12 20
4 51 -6 22 -15 40 -20 40 -6 0 -7 -7 -4 -15 3 -8 9 -21 12 -29 3 -8 -4 -24
-16 -36 -22 -22 -20 -51 6 -81 17 -19 9 -49 -13 -49 -8 0 -12 -4 -9 -9 3 -5
14 -7 24 -5 24 6 47 -11 36 -27 -5 -8 -9 -18 -10 -24 0 -5 -2 -16 -2 -23 -2
-16 -19 -7 -32 18 -9 16 -8 19 7 14 11 -3 10 0 -3 7 -23 12 -47 53 -37 63 4 3
14 6 24 6 26 0 13 28 -14 32 -25 3 -35 37 -15 49 7 5 8 9 2 9 -6 0 -14 -3 -18
-7 -3 -4 -14 -8 -24 -9 -16 -3 -16 -2 1 10 25 19 21 27 -7 16 -20 -7 -27 -5
-40 15 -15 23 -14 25 17 56 32 33 19 31 -18 -2 -20 -18 -21 -18 -49 11 -15 17
-24 30 -19 30 86 5 116 4 120 -6 4 -12 73 -18 73 -6 0 14 -84 72 -98 67 -7 -2
-11 -1 -9 3 7 10 -101 127 -109 119 -4 -4 1 -14 12 -23 16 -13 17 -15 2 -10
-10 3 -18 0 -18 -5 0 -7 9 -9 21 -6 15 4 23 -1 31 -19 6 -13 18 -24 27 -24 14
0 14 -2 1 -11 -12 -9 -11 -10 5 -4 18 5 18 4 5 -9 -12 -12 -23 -13 -45 -7 -25
8 -26 9 -7 10 24 1 32 21 8 21 -28 0 -45 -12 -39 -27 4 -11 2 -14 -5 -9 -7 4
-12 15 -13 24 0 10 -4 6 -10 -10 l-10 -27 -111 80 c-60 43 -121 82 -134 85
-13 3 -24 12 -24 20 0 8 0 17 -1 21 0 4 5 9 12 12 7 2 9 -1 4 -9 -5 -8 -4 -11
3 -6 6 4 9 13 6 20 -3 8 -1 17 5 21 6 3 11 0 11 -7 1 -7 7 1 15 17 15 29 15
29 12 4 -2 -16 1 -26 10 -26 7 0 13 3 13 6 0 4 19 7 43 7 23 0 34 -1 24 -4
-14 -3 -16 -7 -6 -18 7 -9 8 -14 1 -14 -6 0 -12 6 -15 13 -3 9 -8 9 -16 1 -9
-8 0 -14 34 -24 25 -7 64 -26 87 -42 30 -22 43 -27 52 -18 8 8 7 13 -4 20 -8
5 -18 6 -24 3 -5 -3 -6 -2 -3 4 9 14 -68 82 -101 89 -15 4 -40 15 -57 24 -31
19 -138 57 -165 59 -62 6 -78 9 -89 15 -19 12 -24 0 -7 -17 8 -8 12 -18 9 -21
-4 -4 4 -5 18 -4 19 2 24 -1 23 -19 0 -17 2 -20 12 -12 8 6 19 9 26 6 7 -2 22
0 32 6 16 8 18 6 13 -7 -4 -10 -3 -15 3 -11 18 11 10 -22 -12 -50 -15 -20 -18
-30 -10 -33 7 -2 10 -8 7 -13 -4 -5 1 -6 9 -3 9 3 16 2 16 -3 0 -5 14 -17 30
-26 17 -10 30 -16 30 -12 0 9 49 -24 137 -94 45 -35 80 -68 77 -73 -3 -5 -31
14 -61 42 -70 64 -122 104 -128 98 -2 -2 30 -33 72 -69 88 -74 115 -101 108
-107 -2 -3 -30 17 -62 44 -32 27 -52 41 -44 31 17 -21 4 -22 -20 -1 -10 9 -15
23 -12 32 3 12 2 14 -4 4 -7 -10 -13 -9 -26 5 -8 10 -16 22 -15 27 0 5 -13 17
-29 27 -15 10 -28 24 -28 31 0 6 -7 13 -15 15 -13 4 -13 3 0 -6 8 -6 10 -11 5
-11 -6 0 -23 14 -38 31 -17 19 -31 28 -39 23 -10 -6 -10 -4 0 8 11 14 10 17
-8 23 -12 4 -24 4 -27 1 -3 -3 -13 2 -22 12 -16 17 -30 21 -88 25 -18 2 -35 6
-40 10 -4 5 0 5 10 1 9 -3 17 -1 17 4 0 13 -54 24 -95 18 -37 -5 -81 17 -90
45 -9 28 -1 33 35 21 26 -9 34 -8 49 7 18 18 18 19 -3 29 -11 6 -37 13 -56 17
-99 17 -103 17 -96 6 4 -6 2 -11 -4 -11 -6 0 -8 -4 -5 -10 3 -5 1 -10 -4 -10
-15 0 -14 33 1 48 7 7 9 12 6 12 -4 0 -14 -7 -22 -16z m25 -68 c-9 -11 -9 -15
1 -19 7 -3 2 -4 -12 -2 -14 2 -29 4 -33 4 -5 1 -5 6 -2 11 4 6 11 8 16 5 5 -4
9 -1 9 4 0 6 7 11 16 11 13 0 14 -3 5 -14z m503 -80 c2 -15 -1 -29 -5 -32 -5
-3 -9 3 -10 13 0 10 -3 29 -5 43 -3 18 -2 22 6 14 7 -7 13 -23 14 -38z m-189
-311 c103 -77 245 -211 245 -231 0 -6 9 -19 21 -30 11 -10 25 -28 30 -39 6
-11 -9 3 -33 30 -55 64 -210 214 -222 215 -5 0 -30 19 -55 43 -25 23 -59 52
-76 64 -16 12 -25 23 -20 23 6 0 55 -34 110 -75z m609 33 c-3 -4 6 -10 20 -14
14 -3 30 -12 37 -20 16 -19 6 -18 -38 7 -29 16 -41 19 -55 10 -25 -15 -48 -14
-48 4 0 12 -4 13 -25 3 -13 -6 -21 -16 -18 -22 4 -6 -1 -5 -10 3 -35 28 -19
37 62 36 44 0 77 -3 75 -7z m-187 -95 c3 -8 3 -17 -1 -20 -6 -6 -85 76 -86 90
0 12 81 -53 87 -70z m110 -16 c58 -79 90 -130 98 -154 3 -13 12 -22 18 -20 7
1 11 -5 10 -13 -2 -8 8 -37 22 -65 13 -27 25 -43 25 -34 0 9 7 20 16 23 26 10
28 -1 5 -25 -24 -26 -25 -33 -8 -51 18 -20 18 -33 2 -72 -18 -42 -12 -48 8 -9
l14 26 21 -64 c29 -91 33 -126 25 -194 -6 -52 -8 -56 -14 -30 -5 21 -7 6 -9
-50 l-3 -80 -7 73 c-5 41 -11 90 -14 110 l-6 37 15 -30 c12 -24 14 -25 9 -6
-4 14 -15 38 -25 55 -13 22 -15 33 -7 43 6 7 12 34 13 61 3 38 1 42 -6 23 -5
-14 -8 -33 -7 -44 2 -11 -3 -22 -9 -24 -8 -3 -13 4 -13 16 0 12 -5 21 -11 21
-8 0 -9 14 -5 44 9 58 -8 121 -42 155 -26 25 -44 99 -21 85 14 -8 -2 22 -26
51 -16 19 -16 18 0 -8 33 -57 6 -37 -41 30 -62 88 -116 149 -129 145 -5 -2 -4
2 3 9 6 7 12 21 12 31 0 17 2 17 24 3 14 -9 42 -40 63 -68z m-3 -107 c37 -54
72 -113 78 -132 6 -18 17 -37 25 -41 20 -12 45 -67 39 -84 -3 -8 -1 -23 4 -34
6 -10 7 -19 3 -19 -5 0 -24 30 -43 68 -19 37 -56 100 -82 141 -26 41 -48 77
-48 81 0 4 -7 10 -15 14 -8 3 -15 11 -15 18 0 7 -11 25 -24 39 -17 18 -23 34
-19 48 8 30 19 19 97 -99z m-80 15 c5 0 10 -9 12 -20 2 -11 11 -25 21 -33 10
-7 18 -17 18 -23 0 -5 6 -14 14 -18 20 -13 159 -251 146 -251 -3 0 -1 -9 5
-21 9 -16 8 -23 -4 -32 -8 -7 -16 -23 -18 -37 -3 -23 -6 -20 -32 25 -16 28
-45 70 -66 95 -20 25 -53 70 -73 100 -20 30 -48 69 -62 86 -24 30 -25 32 -10
67 8 20 15 46 15 57 0 15 4 19 13 13 6 -4 16 -8 21 -8z m184 6 c-2 -5 5 -16
15 -23 18 -14 18 -14 0 -28 -10 -8 -15 -10 -11 -6 4 5 -2 22 -13 37 -17 24
-18 29 -5 29 9 0 15 -4 14 -9z m62 -439 c0 -28 -35 -69 -45 -52 -3 4 -1 10 5
12 5 1 10 18 12 36 3 40 28 44 28 4z"/>
<path d="M2145 2624 c16 -27 36 -61 44 -76 9 -16 19 -28 23 -28 9 0 -70 138
-85 147 -6 4 2 -16 18 -43z"/>
<path d="M1190 3428 c-14 -6 -34 -10 -45 -9 -17 2 -17 0 -5 -8 9 -7 10 -11 3
-11 -6 0 -14 4 -18 9 -3 6 -22 2 -45 -8 -46 -21 -66 -37 -32 -27 16 6 22 3 22
-8 0 -20 -10 -20 -37 -1 -20 14 -23 13 -37 -7 -8 -11 -14 -24 -12 -27 2 -3
-15 -7 -37 -9 -31 -2 -49 -10 -70 -32 -15 -17 -32 -30 -36 -30 -5 0 -11 -7
-15 -15 -4 -12 0 -14 22 -9 15 4 28 11 30 16 2 4 8 8 14 8 6 0 8 -7 4 -15 -4
-12 8 -14 79 -13 89 2 105 -3 86 -26 -8 -10 -20 -12 -39 -7 -36 10 -156 3
-160 -9 -2 -6 -8 -10 -13 -10 -6 0 -7 5 -4 10 8 12 3 13 -29 0 -38 -14 -32 -4
12 20 20 12 29 19 19 16 -10 -3 -23 -6 -27 -6 -19 0 -107 -99 -98 -108 7 -7 3
-12 -10 -16 -11 -4 -37 -25 -56 -46 -28 -32 -36 -48 -36 -79 0 -22 5 -42 13
-44 10 -4 9 -6 0 -6 -7 -1 -13 -6 -13 -12 0 -6 -14 -40 -30 -75 -21 -44 -29
-71 -24 -88 8 -35 21 -24 19 16 -3 46 14 93 29 78 7 -7 8 -13 0 -18 -17 -11
-24 -41 -12 -48 6 -4 8 -3 4 4 -3 6 0 14 7 19 21 12 28 53 10 53 -12 0 -9 8
11 34 14 19 26 40 26 45 0 10 92 76 130 93 13 6 13 7 0 7 -9 1 -32 -10 -52
-24 -20 -14 -40 -25 -44 -25 -4 0 -16 -8 -27 -17 -16 -14 -19 -15 -15 -3 3 8
-2 20 -11 27 -14 10 -13 15 13 42 17 17 34 31 39 31 5 0 23 10 39 22 29 20 30
22 12 35 -10 7 -13 13 -7 13 7 0 14 -4 17 -8 6 -9 27 -8 64 3 17 6 21 12 16
27 -5 17 -2 19 23 17 15 -2 34 0 41 5 11 7 31 8 125 5 18 0 16 -10 -11 -41 -8
-9 -12 -22 -10 -29 2 -7 14 4 26 23 26 42 46 52 62 33 7 -8 16 -13 20 -10 5 3
11 1 15 -5 3 -5 15 -10 26 -10 10 0 19 -4 19 -10 0 -5 6 -10 13 -10 18 0 75
-28 82 -41 4 -5 10 -7 15 -4 5 3 14 -4 20 -15 6 -11 15 -18 20 -15 5 3 15 -3
22 -12 17 -24 63 -47 76 -39 7 4 9 -3 6 -19 -5 -27 13 -34 35 -12 10 10 11 9
5 -6 -5 -13 -2 -16 12 -10 12 4 15 3 10 -5 -4 -7 -2 -12 5 -12 7 0 23 -10 36
-22 13 -12 23 -17 23 -12 0 6 -39 44 -87 86 -49 42 -115 102 -148 132 -76 71
-156 113 -182 96 -13 -8 -14 -10 -2 -7 26 8 97 -30 169 -90 38 -32 67 -60 65
-62 -5 -4 -109 61 -113 71 -2 5 -9 8 -16 8 -7 0 -30 9 -52 19 -22 11 -53 23
-68 27 -15 3 -25 9 -24 13 45 87 50 93 63 71 3 -5 12 -10 18 -10 7 1 6 5 -4
13 -9 7 -15 22 -14 34 2 28 -19 20 -35 -15 -8 -15 -13 -30 -12 -33 1 -7 -165
-1 -186 6 -7 3 -10 10 -6 16 4 8 3 9 -4 5 -7 -4 -12 -2 -12 3 0 6 7 11 15 11
8 0 15 5 15 11 0 8 15 10 45 7 47 -6 67 4 40 20 -11 6 4 9 45 9 50 1 59 -2 49
-13 -8 -9 -8 -14 -1 -14 16 0 24 18 17 39 -4 13 -12 18 -28 14 -21 -4 -22 -4
-3 11 16 13 22 13 28 3 6 -9 11 -8 19 5 7 12 18 16 37 12 19 -4 32 0 41 10 10
12 10 16 2 16 -7 0 -9 5 -6 10 7 12 7 12 -25 -2z"/>
<path d="M1490 3399 c0 -4 6 -9 13 -12 6 -2 1 -5 -13 -5 -69 -2 -113 -19 -86
-34 12 -7 22 -5 32 3 18 15 58 23 50 10 -3 -4 5 -6 19 -4 16 4 22 10 19 22 -5
13 -4 13 6 -1 6 -10 23 -18 37 -18 22 0 24 -3 19 -24 -4 -16 -1 -26 9 -30 12
-4 14 0 9 21 -4 15 -3 24 2 20 6 -3 11 5 12 18 1 13 -3 27 -8 30 -6 3 -10 2
-10 -3 0 -19 -39 -20 -45 -2 -4 13 -15 18 -35 18 -17 -1 -30 -4 -30 -9z"/>
<path d="M1188 3332 c-30 -6 -20 -28 11 -27 24 0 27 2 18 15 -6 8 -11 15 -12
16 0 0 -8 -1 -17 -4z"/>
<path d="M1344 3275 c10 -8 53 -28 95 -45 92 -38 226 -105 264 -132 16 -11 30
-18 33 -15 9 9 -51 45 -147 91 -245 115 -286 132 -245 101z"/>
<path d="M1370 3226 c0 -2 23 -16 50 -30 28 -14 50 -23 50 -18 0 4 -20 18 -45
30 -46 22 -55 25 -55 18z"/>
<path d="M1990 3160 c0 -5 6 -10 13 -10 6 0 23 -3 37 -6 17 -5 22 -3 15 3 -15
15 -65 25 -65 13z"/>
<path d="M660 3010 c-18 -15 -20 -18 -6 -13 14 5 17 3 11 -7 -5 -8 -3 -11 6
-8 8 3 15 14 15 26 1 12 1 22 0 22 0 0 -12 -9 -26 -20z"/>
<path d="M880 2970 c-11 -11 -20 -28 -19 -37 0 -16 1 -16 12 1 7 11 20 28 30
38 23 25 2 23 -23 -2z"/>
<path d="M2290 2960 c0 -5 -6 -7 -14 -4 -8 3 -23 1 -33 -5 -17 -10 -16 -10 4
-11 12 0 28 -2 35 -5 9 -4 14 2 15 15 1 11 0 20 -3 20 -2 0 -4 -4 -4 -10z"/>
<path d="M1100 2915 c0 -8 153 -76 163 -72 6 2 -27 20 -71 40 -82 37 -92 41
-92 32z"/>
<path d="M835 2867 c-35 -38 -48 -57 -39 -57 10 0 68 70 62 75 -2 2 -12 -6
-23 -18z"/>
<path d="M1560 2884 c0 -10 74 -85 95 -96 11 -6 -5 15 -35 46 -55 56 -60 61
-60 50z"/>
<path d="M710 2860 c-11 -11 -24 -20 -30 -20 -5 0 -10 -7 -10 -15 0 -8 -7 -15
-16 -15 -12 0 -15 -6 -11 -21 4 -14 2 -19 -7 -16 -8 3 -20 -6 -27 -21 -25 -49
-38 -57 -48 -30 -8 20 -9 19 -9 -12 2 -62 -11 -137 -32 -190 -11 -28 -22 -70
-24 -93 -3 -40 -6 -44 -67 -77 -70 -39 -82 -60 -50 -94 12 -12 34 -62 51 -111
46 -135 114 -226 170 -225 8 1 2 8 -15 17 -69 36 -114 106 -153 237 -12 37
-31 79 -42 91 -12 13 -19 28 -16 34 12 19 114 68 127 61 15 -10 41 -1 33 11
-5 9 13 13 56 11 21 -1 22 0 6 7 -18 7 -18 8 -2 14 10 4 25 7 34 7 15 0 15 -2
2 -10 -8 -5 -10 -10 -5 -10 6 0 21 7 33 16 33 23 56 15 57 -21 0 -30 -15 -55
-34 -55 -5 0 -17 -10 -25 -22 -16 -22 -16 -21 -16 19 0 35 -3 41 -16 36 -11
-4 -14 -13 -10 -32 4 -14 8 -37 11 -49 4 -28 15 -42 16 -21 0 8 4 6 9 -6 8
-18 9 -18 9 6 1 24 30 75 31 53 0 -7 11 -9 25 -6 20 3 25 0 25 -15 0 -10 5
-24 12 -31 9 -9 8 -18 -2 -38 -13 -23 -12 -27 8 -43 18 -13 20 -19 10 -29 -6
-6 -19 -12 -27 -12 -21 0 -4 -13 19 -15 13 -1 20 5 20 16 0 10 5 21 10 24 16
10 12 28 -5 21 -10 -3 -15 1 -15 13 0 11 4 21 10 23 5 2 7 13 4 25 -4 13 -10
20 -15 17 -5 -3 -9 4 -9 15 0 12 5 20 11 19 6 -2 14 3 17 11 3 10 -1 12 -18 8
-13 -3 -28 0 -37 9 -11 11 -12 14 -1 14 7 0 19 12 25 27 14 30 9 43 -9 25 -18
-18 -30 -14 -19 7 6 10 8 21 5 24 -3 3 14 3 38 0 49 -7 50 2 1 10 -42 7 -170
-9 -222 -28 -43 -15 -47 -12 -32 29 7 16 7 26 0 28 -17 6 66 190 109 240 8 10
12 24 8 33 -3 9 -2 14 3 11 4 -3 14 7 22 22 7 15 28 43 46 62 44 46 46 73 3
30z"/>
<path d="M1500 2853 c0 -4 28 -26 62 -48 34 -22 82 -57 106 -78 24 -21 47 -35
50 -32 6 6 -3 14 -113 93 -98 71 -105 75 -105 65z"/>
<path d="M1780 2675 c13 -14 21 -27 18 -30 -2 -3 -13 4 -23 15 -10 11 -21 20
-25 20 -4 0 13 -20 37 -46 24 -25 42 -53 41 -62 -2 -10 5 -18 17 -20 12 -2 16
0 9 5 -7 4 -12 20 -12 36 0 22 3 25 14 16 8 -6 12 -15 9 -19 -3 -5 5 -16 17
-26 15 -11 17 -14 6 -11 -10 4 -18 2 -18 -3 0 -6 -8 -10 -17 -10 -15 0 -14 -2
2 -14 11 -8 24 -12 30 -9 5 4 7 3 3 -2 -4 -4 -3 -14 3 -21 6 -7 13 -28 16 -46
6 -39 16 -55 12 -18 -5 39 15 35 23 -5 8 -36 35 -91 64 -132 20 -27 8 -29 -43
-8 -20 8 -38 13 -40 11 -11 -11 40 -46 66 -46 16 0 37 -7 46 -16 21 -21 59
-103 52 -111 -4 -3 0 -21 8 -40 18 -42 18 -46 4 -37 -8 5 -8 1 0 -14 6 -11 11
-32 11 -46 0 -14 5 -28 11 -32 9 -5 10 4 4 32 l-7 39 20 -25 c32 -41 62 -104
71 -151 l9 -44 1 36 c1 32 -22 88 -66 164 -7 11 -24 52 -39 90 -14 39 -35 86
-45 106 l-18 37 34 4 c32 4 35 2 35 -23 0 -14 12 -48 26 -73 15 -26 35 -73 45
-104 12 -36 16 -44 13 -22 -3 19 -22 72 -41 117 -19 46 -32 88 -30 95 3 7 6 3
6 -9 1 -12 6 -25 13 -29 8 -5 9 0 5 17 -4 13 -7 27 -7 32 0 4 -7 7 -15 7 -8 0
-15 7 -15 16 0 13 -2 14 -14 1 -25 -24 -65 -9 -93 37 -36 57 -60 114 -67 161
-4 22 -12 44 -18 50 -8 7 -9 5 -4 -9 5 -16 4 -17 -9 -6 -25 21 -19 43 9 36 20
-5 15 4 -27 44 -28 27 -56 50 -62 50 -5 0 -21 16 -35 35 -14 19 -29 35 -34 35
-5 0 1 -11 14 -25z"/>
<path d="M682 2634 c-14 -54 -24 -185 -12 -159 5 11 9 40 9 65 1 25 6 62 12
83 6 22 8 41 5 44 -2 3 -9 -12 -14 -33z"/>
<path d="M1760 2589 c11 -8 7 -9 -17 -5 -19 3 -33 1 -33 -4 0 -6 -10 -10 -22
-11 -21 -1 -20 -2 6 -13 27 -12 28 -14 10 -24 -22 -13 -20 -14 74 -31 34 -7
67 -9 72 -6 9 6 -28 50 -45 52 -5 1 -20 4 -33 7 -19 4 -22 2 -17 -14 4 -14 2
-20 -8 -20 -8 0 -17 11 -19 24 -4 21 -1 25 29 28 18 2 33 0 33 -6 0 -5 3 -6 6
-3 10 10 -16 37 -35 37 -14 0 -14 -2 -1 -11z m56 -63 c24 -18 17 -26 -18 -19
-17 3 -25 10 -21 19 7 18 14 18 39 0z"/>
<path d="M1262 2578 c2 -7 -8 -14 -22 -16 -14 -2 -31 -9 -38 -14 -7 -6 -15 -8
-19 -5 -3 4 -18 -2 -32 -12 -14 -10 -34 -21 -43 -24 -10 -4 -18 -13 -18 -22 0
-20 6 -19 43 9 70 52 185 86 210 62 7 -7 26 -9 47 -5 l35 6 -32 2 c-18 0 -33
5 -33 9 0 4 -15 9 -32 10 -18 1 -41 5 -51 8 -11 4 -17 1 -15 -8z"/>
<path d="M1465 2583 c17 -5 15 -7 -10 -18 -28 -12 -26 -13 33 -11 46 1 62 -2
62 -12 0 -7 -4 -10 -10 -7 -5 3 -10 2 -10 -3 0 -10 85 -44 92 -37 2 2 1 -49 0
-113 -3 -85 -8 -121 -18 -134 -10 -10 -12 -18 -5 -23 6 -3 9 -16 7 -28 -3 -12
-5 -25 -5 -29 -2 -15 -64 -78 -77 -78 -7 0 -29 -8 -49 -17 -40 -19 -55 -11
-36 19 12 19 11 20 -11 16 -12 -3 -30 -8 -38 -12 -15 -6 -35 33 -47 97 -4 23
-9 26 -27 21 -18 -6 -19 -5 -7 10 12 14 11 16 -7 16 -11 0 -19 -6 -18 -12 0
-7 -3 -13 -9 -13 -5 0 -8 4 -6 10 3 6 4 25 4 43 -1 18 3 30 8 27 5 -4 9 -2 9
4 0 5 -5 11 -12 13 -6 2 -8 9 -4 16 5 9 14 7 33 -5 l25 -17 -6 35 c-6 26 -5
31 4 19 10 -13 11 -13 7 0 -2 8 -11 16 -20 18 -11 2 -14 -2 -10 -17 3 -12 1
-21 -6 -21 -6 0 -11 14 -11 30 0 19 -5 30 -14 30 -14 0 -16 -23 -4 -36 8 -7
-23 -75 -31 -70 -3 2 -7 -7 -8 -21 0 -16 2 -21 7 -14 5 9 9 8 14 -4 8 -21 8
-25 -1 -24 -5 1 -16 1 -25 0 -28 -2 -21 -21 7 -21 14 0 28 -7 31 -15 7 -17 34
-21 34 -5 0 20 28 9 34 -12 9 -34 7 -41 -8 -35 -7 3 -19 0 -25 -6 -8 -8 -11
-6 -11 7 0 9 -4 14 -10 11 -14 -9 -13 -58 2 -73 7 -7 20 -12 30 -12 9 0 22 -8
27 -17 6 -10 11 -12 11 -6 0 7 13 19 30 28 36 19 40 19 40 0 0 -9 -13 -18 -32
-22 l-33 -7 35 -7 c25 -5 14 -7 -42 -8 -42 0 -79 3 -83 8 -3 6 10 8 32 5 30
-3 26 -1 -14 9 -28 8 -64 22 -79 31 -14 10 -23 13 -20 7 12 -19 -10 -12 -30
10 -20 23 -27 70 -11 81 7 4 5 18 -3 39 l-14 33 -8 -32 c-6 -20 -5 -40 3 -53
6 -11 8 -23 6 -25 -7 -7 -40 43 -77 116 -37 73 -44 80 -82 80 -23 0 -28 -4
-28 -24 0 -13 -3 -33 -7 -43 -6 -16 -8 -15 -14 7 -5 19 -7 15 -8 -21 -1 -46
-51 -210 -72 -235 -15 -18 -29 -8 -29 21 0 13 -5 27 -11 31 -9 5 -10 -1 -5
-22 13 -51 11 -66 -6 -77 -14 -9 -20 -8 -31 7 -8 12 -21 17 -30 13 -18 -7 -30
6 -46 48 l-11 30 6 -35 c8 -45 22 -62 45 -55 10 3 21 0 26 -9 4 -8 19 -16 33
-18 17 -3 20 -6 10 -10 -58 -21 -92 -28 -131 -29 -24 0 -38 -3 -31 -6 6 -2 12
-19 12 -37 0 -34 24 -85 80 -174 29 -46 32 -55 21 -78 -8 -18 -8 -23 0 -18 8
4 9 0 4 -15 -4 -12 -2 -21 4 -21 6 0 11 7 11 15 0 8 5 15 11 15 6 0 9 -8 7
-17 -2 -10 1 -22 8 -28 6 -5 23 -31 37 -56 22 -38 24 -49 13 -58 -7 -6 -17 -7
-21 -3 -5 4 -5 1 -1 -6 6 -10 11 -10 22 -1 18 15 17 -1 -1 -25 -8 -11 -15 -14
-15 -8 0 25 -32 10 -75 -33 -48 -49 -63 -81 -47 -97 7 -7 13 0 17 25 8 42 79
118 88 93 4 -9 -4 -21 -19 -30 -13 -9 -24 -25 -24 -36 0 -10 -5 -22 -10 -25
-6 -4 -7 -11 -4 -17 4 -6 2 -8 -4 -4 -6 3 -21 -10 -33 -31 -19 -31 -23 -50
-22 -112 3 -134 33 -284 64 -315 5 -6 9 -17 9 -26 0 -9 11 -27 24 -39 14 -13
30 -37 37 -53 12 -29 11 -32 -38 -77 -28 -25 -79 -80 -113 -121 -33 -41 -70
-85 -81 -98 -14 -18 -16 -28 -9 -42 9 -16 5 -22 -22 -36 l-33 -17 24 27 c14
14 22 28 19 31 -3 3 -18 -11 -33 -32 -15 -21 -78 -86 -139 -145 -61 -59 -108
-107 -104 -108 4 0 23 14 42 31 21 18 40 27 47 23 9 -5 10 -2 6 10 -4 10 -3
15 3 11 12 -7 53 33 45 44 -6 11 23 36 32 28 3 -4 -5 -21 -18 -39 -28 -38 -52
-88 -45 -95 3 -3 11 10 19 28 8 19 29 52 46 73 17 22 29 46 26 53 -2 8 -1 12
4 9 17 -11 109 91 120 132 12 42 25 52 70 52 20 0 27 -5 28 -20 1 -11 -2 -18
-6 -16 -8 5 -31 -36 -31 -54 0 -5 -22 -55 -50 -112 -27 -57 -50 -112 -49 -123
1 -17 2 -16 9 5 11 36 59 137 59 127 2 -16 -31 -107 -40 -113 -5 -3 -9 -16 -9
-30 0 -14 4 -22 10 -19 6 3 10 15 10 25 0 10 16 49 35 86 20 38 33 74 31 81
-3 7 -1 15 5 19 6 4 5 12 -3 22 -7 9 -8 13 -2 9 7 -4 17 5 24 23 7 17 16 30
19 30 4 0 15 16 24 36 13 26 15 40 7 55 -8 15 -7 26 7 49 9 16 14 32 11 36 -8
8 -28 -4 -28 -17 0 -6 5 -7 12 -3 6 4 8 3 5 -4 -4 -5 -17 -8 -30 -4 -20 5 -21
4 -8 -12 8 -9 11 -20 7 -23 -4 -4 -11 -1 -15 6 -5 8 -14 10 -21 6 -9 -5 -1
-15 24 -30 36 -22 40 -43 4 -24 -10 5 -24 7 -31 3 -6 -4 -9 -4 -5 1 4 4 3 16
-2 25 -8 15 0 29 38 71 l47 52 11 -39 c11 -38 24 -48 33 -23 2 7 -1 9 -8 5 -7
-5 -11 2 -11 18 0 17 9 31 28 43 44 29 110 94 87 88 -16 -5 -16 -3 4 12 14 10
54 40 90 66 76 57 161 102 161 87 0 -6 11 -21 25 -34 l25 -23 -46 -94 c-26
-52 -61 -129 -80 -172 -46 -111 -123 -246 -199 -352 -36 -49 -65 -94 -65 -99
0 -12 87 101 118 153 14 24 28 39 30 32 2 -7 11 -2 23 13 23 29 25 43 4 26 -8
-7 -15 -8 -15 -3 0 5 9 16 20 26 11 9 20 24 20 32 0 18 20 55 37 70 7 5 22 39
34 75 12 36 46 116 76 178 l55 114 -20 21 c-21 23 -72 110 -72 123 0 4 7 -1
15 -12 14 -19 14 -18 15 4 0 12 -9 31 -21 43 -15 15 -18 24 -10 32 8 8 11 6
11 -6 0 -9 4 -17 9 -17 5 0 11 -6 14 -13 2 -6 3 -5 2 3 -2 8 -10 32 -19 54
-12 27 -13 37 -5 34 7 -2 18 -20 25 -39 7 -19 13 -27 13 -19 1 13 3 13 10 1 6
-10 5 -24 -4 -41 -15 -28 -11 -41 29 -102 18 -28 40 -30 30 -3 -4 8 -11 12
-17 8 -6 -3 -7 -1 -3 6 4 6 0 14 -8 17 -9 3 -14 10 -11 14 3 4 -2 13 -10 20
-7 6 -11 19 -8 27 5 14 8 13 20 -3 8 -10 17 -18 21 -16 3 2 8 -2 11 -9 2 -7
-1 -9 -8 -5 -18 11 -13 -9 9 -36 37 -48 47 -101 12 -66 -7 7 -12 8 -12 2 0
-10 42 -34 59 -34 5 0 11 9 14 21 4 15 2 19 -9 15 -8 -3 -14 -1 -14 4 0 17 30
11 37 -6 3 -9 1 -26 -6 -37 -11 -17 -11 -19 3 -14 9 4 16 2 16 -3 0 -15 -41
-12 -74 5 -33 17 -44 14 -21 -5 8 -7 35 -15 59 -17 41 -5 45 -8 50 -39 5 -25
0 -47 -24 -95 -17 -33 -44 -111 -60 -172 -30 -114 -73 -347 -66 -354 6 -6 16
38 45 193 36 193 98 372 121 347 5 -4 13 -24 18 -43 6 -19 11 -26 11 -16 1 11
-6 42 -14 70 -8 28 -30 109 -50 180 -36 132 -71 223 -81 213 -3 -3 2 -17 11
-31 20 -31 3 -36 -18 -5 -11 15 -17 17 -23 8 -4 -7 -2 -15 4 -17 7 -2 10 -8 6
-13 -3 -5 -2 -9 3 -8 18 3 53 -14 53 -26 0 -7 -9 -23 -20 -36 l-19 -24 3 34
c3 26 0 35 -16 39 -11 2 -26 22 -35 43 -8 21 -19 36 -24 33 -5 -3 -9 2 -9 11
0 12 5 15 18 10 30 -12 102 -16 102 -5 0 5 -20 10 -44 10 -44 0 -142 27 -193
53 -39 21 -57 45 -73 97 -16 51 -56 138 -75 160 -28 32 -150 260 -140 260 9 0
-26 62 -51 93 -14 16 -21 34 -17 44 4 11 3 14 -5 9 -15 -9 -51 66 -52 105 0
24 4 27 48 31 38 4 87 20 134 46 4 2 8 -14 10 -35 2 -28 8 -38 20 -38 9 0 20
-4 24 -8 14 -14 26 -7 14 8 -7 8 -20 14 -29 13 -12 -2 -17 7 -19 45 -2 36 9
86 48 205 28 86 57 163 65 171 22 23 40 7 79 -73 71 -143 176 -228 283 -228
68 0 144 13 137 23 -3 5 2 6 10 3 8 -3 32 4 55 15 92 48 121 109 128 276 4 84
10 128 21 145 13 22 13 23 0 13 -8 -7 -18 -10 -21 -7 -11 11 -20 -66 -14 -119
4 -34 3 -45 -3 -32 -15 35 -12 128 7 155 15 22 15 23 0 17 -9 -3 -19 -2 -22 4
-4 5 -10 7 -15 4 -12 -7 -50 12 -50 25 0 16 27 11 34 -5 4 -12 10 -14 25 -5
26 13 40 13 21 -1 -13 -9 -13 -10 0 -6 8 2 15 10 15 18 0 9 -15 15 -45 18
l-45 5 50 7 c42 6 37 7 -28 5 -43 -1 -80 1 -83 6 -3 4 -17 7 -32 7 -21 -1 -22
-3 -7 -6z m172 -338 c-6 -30 -14 -55 -17 -55 -4 0 -2 24 5 54 7 30 10 58 6 62
-3 4 -1 4 5 1 8 -4 8 -22 1 -62z m-31 -103 c-9 -17 -30 -41 -48 -53 l-33 -23
37 37 c20 20 39 46 43 58 4 11 9 18 12 16 2 -3 -3 -19 -11 -35z m-259 -32 c3
-11 10 -20 16 -20 8 0 8 -3 0 -11 -13 -13 -58 -2 -74 18 -10 12 -10 16 2 24
24 15 51 10 56 -11z m-457 -763 c0 -34 4 -40 30 -50 16 -6 29 -16 28 -22 -1
-12 6 -33 36 -95 11 -25 19 -49 17 -55 -15 -46 -23 -154 -16 -203 11 -72 23
-35 27 80 2 58 6 109 9 112 3 3 20 -1 38 -10 31 -15 31 -17 15 -35 -9 -11 -14
-22 -10 -26 4 -5 12 0 17 10 10 17 31 24 27 10 -3 -15 24 -128 38 -155 14 -27
13 -28 -28 -49 -67 -34 -238 -163 -226 -170 5 -4 -13 -24 -43 -47 -30 -23 -55
-39 -58 -36 -4 4 36 43 68 66 19 13 19 16 5 44 -9 16 -22 50 -30 75 -14 46
-37 68 -50 48 -3 -6 2 -13 13 -15 13 -4 24 -25 37 -70 21 -73 16 -94 -9 -41
-9 19 -25 43 -36 53 -10 9 -19 25 -19 34 0 9 -3 20 -7 24 -38 37 -79 288 -61
371 7 33 16 49 32 55 14 5 27 23 34 49 12 39 28 59 38 48 3 -3 -1 -18 -9 -34
-22 -42 -41 -187 -40 -288 1 -27 2 -69 2 -92 1 -24 5 -43 10 -43 4 0 7 35 6
78 -1 42 5 122 13 177 8 55 15 115 16 132 1 37 1 37 27 23 23 -13 25 -3 4 20
-13 14 -12 21 7 59 20 40 22 42 35 25 7 -10 13 -35 13 -57z m427 -489 c-17
-11 -39 -10 -33 1 4 5 0 11 -6 14 -9 3 -7 10 7 26 l20 23 11 -29 c9 -21 9 -30
1 -35z"/>
<path d="M866 1219 c-3 -8 -10 -33 -16 -57 -6 -24 -14 -51 -17 -60 -4 -12 -3
-14 5 -7 12 11 44 126 37 133 -2 3 -7 -1 -9 -9z"/>
<path d="M1266 2525 c-22 -8 -43 -12 -48 -9 -14 9 -119 -60 -113 -74 3 -7 0
-10 -5 -7 -6 4 -16 -8 -24 -26 -13 -31 -14 -32 -21 -9 -6 18 -2 27 15 40 14
11 20 22 15 30 -5 8 -11 5 -19 -11 -14 -28 -27 -34 -96 -47 -53 -10 -56 -9
-92 19 -21 17 -38 26 -38 21 0 -4 14 -18 31 -31 24 -18 28 -25 18 -37 -15 -18
1 -18 27 0 12 8 45 18 75 22 45 5 52 4 42 -7 -7 -7 -13 -18 -13 -23 0 -6 4 -5
9 3 15 24 28 3 34 -55 3 -31 11 -62 18 -68 9 -8 11 -7 6 5 -16 46 -18 107 -5
140 l15 34 7 -44 c6 -40 8 -42 20 -25 13 17 14 16 9 -9 -3 -15 -1 -27 5 -27 6
0 8 8 5 19 -3 10 0 22 6 25 6 4 11 14 11 22 0 11 -4 12 -19 5 -26 -15 -37 16
-15 40 26 29 41 23 48 -20 6 -42 17 -46 54 -20 15 11 21 22 17 35 -5 15 -3 15
11 -3 9 -13 26 -23 38 -22 11 0 15 3 9 6 -15 5 -17 49 -4 57 5 4 12 0 14 -6 3
-8 6 -6 6 5 1 18 -15 20 -59 8 -17 -5 -21 -9 -12 -15 6 -4 17 -4 22 -1 6 4 10
-6 10 -21 0 -24 -2 -26 -12 -12 -7 9 -24 26 -38 38 -14 12 -20 19 -14 16 6 -3
19 3 29 14 10 11 25 20 34 20 9 0 23 5 31 10 21 14 2 12 -44 -5z m-61 -25 c-4
-6 -1 -18 6 -26 16 -19 21 -64 8 -64 -6 0 -7 5 -4 10 3 6 1 10 -4 10 -6 0 -11
-5 -11 -11 0 -5 -4 -7 -10 -4 -5 3 -10 15 -10 26 0 11 -7 22 -16 26 -12 4 -9
9 13 24 34 21 36 22 28 9z"/>
<path d="M1378 2533 c-34 -9 -17 -23 27 -23 36 0 45 -3 45 -17 0 -10 3 -29 7
-42 4 -16 2 -22 -4 -18 -6 4 -13 -3 -16 -15 -4 -13 -1 -26 6 -30 8 -5 14 1 18
15 3 12 11 21 17 20 7 -2 12 5 12 15 0 9 3 28 7 41 4 18 3 22 -6 17 -8 -5 -12
-3 -10 5 1 8 1 20 0 27 -1 14 -57 16 -66 2 -3 -5 -11 -10 -16 -10 -6 0 -7 5
-4 10 3 6 5 9 3 9 -2 -1 -11 -3 -20 -6z"/>
<path d="M1358 2492 c-23 -3 -28 -8 -27 -30 2 -24 2 -24 6 -4 2 12 11 22 19
22 18 0 11 -35 -12 -60 -17 -20 -6 -35 29 -37 24 -1 27 3 27 31 0 18 -6 38
-12 44 -10 10 -10 15 2 22 11 7 17 4 22 -8 5 -14 7 -13 7 5 1 15 -4 21 -16 20
-10 -1 -30 -3 -45 -5z"/>
<path d="M1580 2459 c0 -2 7 -22 15 -44 14 -40 14 -40 15 -9 0 17 -7 37 -15
44 -8 7 -15 11 -15 9z"/>
<path d="M1557 2390 c-21 -25 -22 -31 -2 -24 8 4 15 1 15 -5 0 -6 -8 -11 -17
-12 -14 0 -15 -2 -3 -6 8 -3 18 -11 23 -17 4 -6 6 10 5 36 -2 27 -3 48 -3 48
0 0 -8 -9 -18 -20z"/>
<path d="M1230 2376 c0 -8 -3 -16 -7 -19 -5 -2 -2 -2 6 0 9 2 12 -4 9 -22 -3
-14 -2 -25 2 -25 14 0 20 31 10 49 -5 10 -6 21 -3 25 3 3 1 6 -5 6 -7 0 -12
-6 -12 -14z"/>
<path d="M810 2359 c0 -7 -10 -9 -25 -7 -13 3 -22 1 -19 -3 8 -14 54 -11 54 3
0 9 3 9 11 1 14 -14 4 -47 -11 -38 -5 3 -15 -6 -20 -20 -12 -33 -12 -35 0 -35
6 0 10 9 10 20 0 11 5 20 11 20 6 0 9 -6 6 -12 -3 -7 -8 -21 -12 -30 -4 -10
-3 -18 3 -18 6 0 13 18 17 41 5 27 11 39 20 35 10 -3 9 2 -2 25 -14 28 -43 40
-43 18z"/>
<path d="M1360 2320 c0 -7 8 -9 20 -5 18 6 17 3 -6 -20 -20 -20 -29 -24 -35
-14 -12 20 -18 7 -8 -19 7 -18 14 -22 29 -17 12 4 20 2 20 -5 0 -7 7 -10 14
-7 10 4 13 1 9 -9 -3 -7 0 -14 6 -14 11 0 15 13 12 38 -1 6 7 12 19 12 23 0
27 -15 5 -24 -9 -3 -12 -12 -8 -22 6 -16 7 -16 14 2 7 17 8 17 8 -3 1 -13 6
-23 12 -23 8 0 8 48 -1 70 -1 3 -1 15 0 28 1 12 -4 22 -10 22 -7 0 -10 -7 -7
-14 4 -9 -2 -17 -14 -21 -25 -8 -32 -2 -34 28 -1 14 -9 23 -23 25 -12 2 -22
-2 -22 -8z"/>
<path d="M509 2313 c-1 -5 0 -18 1 -30 1 -19 -4 -23 -25 -23 -18 0 -28 -7 -35
-25 -11 -28 -10 -33 29 -128 6 -15 11 -36 11 -45 1 -20 52 -96 63 -94 4 2 20
-4 35 -11 41 -22 99 -30 108 -16 5 9 2 10 -9 6 -10 -3 -24 -4 -32 -1 -13 5
-14 20 -9 87 7 79 7 80 -14 75 -13 -4 -22 -1 -22 5 0 7 -5 5 -10 -3 -7 -11
-10 -7 -10 17 0 22 -4 31 -12 28 -17 -7 -54 71 -49 104 2 14 7 34 12 44 8 13
6 17 -11 17 -11 0 -20 -3 -21 -7z m20 -120 c14 -29 33 -53 41 -53 17 -1 -46
-30 -65 -30 -16 0 -42 95 -36 133 3 24 36 -4 60 -50z m48 -113 c3 -49 6 -60
15 -60 4 0 8 12 8 26 0 14 -4 23 -10 19 -5 -3 -10 -1 -10 4 0 6 9 11 20 11 11
0 23 0 27 0 12 0 14 -56 3 -82 -8 -20 -9 -18 -10 17 -1 32 -3 36 -10 20 -5
-11 -9 -33 -9 -49 -1 -24 -3 -26 -16 -16 -8 6 -18 9 -23 6 -5 -3 -9 0 -9 7 0
7 -12 31 -26 54 -33 51 -33 51 -4 63 40 16 52 12 54 -20z"/>
<path d="M2200 2249 c0 -24 21 -82 36 -100 8 -9 11 -18 8 -22 -4 -3 -3 -14 1
-24 5 -10 8 -21 7 -25 -1 -4 4 -5 12 -2 9 3 19 -16 34 -62 12 -37 20 -69 18
-71 -2 -3 -12 19 -21 46 -10 32 -21 49 -28 44 -6 -4 -8 0 -4 10 4 11 1 17 -9
17 -11 0 -12 -5 -6 -17 5 -10 8 -23 5 -29 -2 -5 4 -28 12 -50 14 -36 14 -20
-1 34 -4 12 -2 22 4 22 11 0 32 -99 22 -105 -4 -2 -10 -44 -12 -92 -4 -69 -11
-99 -31 -136 -14 -26 -29 -43 -32 -36 -4 5 -13 8 -20 5 -7 -2 -21 4 -30 14
-10 11 -22 17 -28 13 -6 -4 -7 -1 -2 6 4 7 -1 22 -13 34 -22 24 -48 98 -58
167 -5 30 -9 38 -13 26 -5 -14 -16 -4 -51 48 -24 36 -46 63 -49 60 -7 -7 30
-74 57 -100 12 -13 22 -33 22 -45 0 -12 7 -27 16 -34 10 -6 18 -23 20 -36 1
-14 16 -53 32 -87 24 -49 29 -71 26 -108 -3 -25 -1 -43 4 -40 9 6 22 -62 22
-115 0 -16 5 -29 11 -29 6 0 8 8 5 18 -4 13 -1 19 9 19 8 0 13 -3 10 -5 -9
-10 17 -31 31 -25 8 3 14 0 14 -7 0 -6 -6 -8 -12 -4 -10 6 -10 4 0 -7 6 -7 12
-17 12 -22 0 -4 -6 -5 -12 -1 -9 5 -9 2 1 -9 15 -19 26 -23 15 -5 -4 7 -3 8 5
4 6 -4 9 -11 6 -15 -2 -5 5 -17 16 -27 24 -22 54 -75 50 -88 -1 -5 5 -3 14 4
9 7 15 9 14 4 -3 -18 1 -31 19 -50 32 -36 47 -58 35 -50 -7 4 -13 2 -13 -3 0
-6 4 -11 9 -11 5 0 11 -9 14 -20 6 -21 23 -25 47 -10 12 8 11 13 -9 33 -19 21
-21 28 -10 45 7 11 18 18 24 16 7 -3 18 2 25 11 19 23 52 18 101 -14 40 -27
112 -95 82 -77 -7 4 -13 2 -13 -3 0 -6 10 -11 23 -11 12 -1 38 -15 57 -32 22
-19 27 -28 15 -23 -43 16 -55 17 -55 4 0 -7 3 -10 6 -6 4 3 22 0 41 -8 18 -8
31 -10 28 -5 -9 15 6 12 24 -4 9 -7 43 -30 76 -51 79 -48 34 -8 -81 72 -49 34
-111 83 -139 108 -62 56 -97 73 -168 81 -51 6 -58 10 -82 45 -14 21 -25 43
-25 49 0 6 -5 8 -10 5 -6 -4 -8 -11 -5 -16 4 -5 1 -9 -5 -9 -7 0 8 -18 31 -40
27 -25 53 -40 68 -40 18 0 22 -3 14 -11 -7 -7 -20 -8 -34 -3 -13 4 -32 7 -41
5 -11 -1 -18 4 -18 15 0 10 -27 44 -60 76 -56 54 -72 78 -51 78 4 0 -12 21
-37 46 -33 32 -42 48 -34 53 10 6 9 11 -3 21 -21 18 -19 35 7 52 20 13 21 18
9 32 -7 8 -17 14 -21 11 -10 -6 -35 23 -27 32 4 3 9 -1 13 -10 3 -9 11 -14 19
-11 7 3 15 -2 19 -11 9 -24 23 -10 47 45 l21 49 41 -47 c56 -65 77 -115 77
-189 0 -35 5 -65 11 -69 9 -5 10 15 7 72 -5 91 -27 142 -89 209 l-39 43 12 53
c6 30 11 61 9 68 -2 13 0 13 13 2 9 -8 16 -28 16 -45 0 -24 -3 -28 -11 -16 -8
11 -9 9 -3 -10 13 -47 24 -70 32 -70 13 0 -15 154 -29 159 -6 2 -4 10 6 21 15
17 15 23 1 82 -16 64 -126 296 -126 267z"/>
<path d="M2220 2257 c0 -16 35 -77 43 -74 5 1 7 7 5 12 -2 6 -6 9 -10 8 -5 -2
-8 3 -8 10 -1 12 -30 56 -30 44z"/>
<path d="M1383 2196 c10 -8 22 -27 26 -43 4 -15 14 -29 22 -31 12 -2 14 5 11
33 -2 20 -7 34 -10 31 -3 -3 -10 -2 -16 3 -6 4 -20 11 -31 14 -19 7 -19 6 -2
-7z"/>
<path d="M658 2171 c-14 -16 -15 -26 -6 -55 13 -42 30 -49 18 -8 -4 16 -4 36
2 46 15 26 5 39 -14 17z"/>
<path d="M817 2168 c-20 -16 -32 -64 -18 -73 6 -3 14 1 17 9 3 9 12 16 19 16
7 0 15 9 18 20 6 25 0 25 -27 3 -20 -18 -20 -18 -3 10 19 30 18 33 -6 15z"/>
<path d="M1013 1920 c-13 -5 -23 -17 -23 -27 0 -15 2 -15 14 3 12 15 27 19 80
19 36 0 66 3 66 8 0 10 -110 8 -137 -3z"/>
<path d="M1430 1745 c0 -3 12 -10 26 -16 l27 -10 -23 -24 c-25 -26 -50 -23
-50 6 0 24 -35 26 -45 2 -6 -17 -7 -17 -19 0 -18 23 -53 22 -61 -3 -6 -20 -7
-20 -23 1 l-17 20 -27 -20 c-22 -18 -27 -18 -32 -6 -11 29 -86 10 -86 -21 0
-14 -2 -14 -16 0 -31 32 -95 10 -74 -24 8 -12 10 -10 10 9 0 20 3 22 27 16 32
-8 43 -21 43 -52 0 -20 -5 -23 -40 -23 -43 0 -63 21 -58 63 2 12 -1 24 -7 25
-5 2 -18 8 -28 13 -11 6 -24 6 -35 0 -14 -9 -13 -10 11 -11 21 0 30 -7 37 -27
6 -16 15 -36 20 -45 13 -23 13 -31 -2 -22 -7 4 -8 3 -4 -4 4 -6 14 -9 24 -6 9
2 7 -1 -6 -7 -33 -18 -22 -33 26 -34 22 -1 38 3 35 8 -3 5 -18 7 -34 5 -28 -4
-28 -4 -10 13 12 12 50 21 116 29 53 6 99 10 101 7 3 -2 -16 -10 -41 -17 -25
-7 -45 -17 -45 -22 0 -6 8 -7 18 -3 9 4 55 20 102 37 105 37 116 43 101 52 -6
4 -21 0 -33 -8 -27 -19 -58 -21 -58 -3 0 8 -3 7 -10 -3 -6 -9 -5 -17 3 -23 11
-7 -21 -2 -65 9 -9 3 -19 0 -23 -6 -3 -5 -23 -10 -44 -10 -37 0 -37 0 -33 36
3 25 11 39 28 46 26 12 54 -3 54 -28 0 -21 17 -17 23 6 7 28 35 36 51 14 13
-17 14 -17 27 4 18 28 35 28 50 0 l12 -22 17 22 c23 28 28 28 32 0 2 -13 9
-22 16 -20 6 1 12 -3 12 -9 0 -7 14 2 30 19 17 18 30 39 30 49 0 9 -3 14 -6
10 -3 -3 -17 -2 -30 3 -13 5 -24 7 -24 5z"/>
<path d="M832 1698 c6 -18 15 -37 21 -43 7 -7 8 -4 3 8 -3 11 -9 30 -12 43 -3
13 -10 24 -15 24 -4 0 -3 -15 3 -32z"/>
<path d="M2171 1421 c-15 -26 -14 -28 9 -34 16 -4 20 0 20 18 0 32 -16 40 -29
16z"/>
<path d="M2170 1371 c0 -7 -5 -9 -11 -5 -7 4 -10 2 -8 -5 3 -7 9 -13 14 -13 6
-1 16 -8 23 -17 11 -14 12 -13 6 9 -7 29 -24 51 -24 31z"/>
<path d="M2221 1328 c5 -18 9 -47 9 -65 0 -17 4 -34 9 -38 6 -3 7 10 4 32 -6
36 -5 37 12 23 17 -14 18 -13 12 3 -4 10 -7 21 -7 23 0 3 -4 3 -9 0 -5 -4 -12
7 -16 24 -4 16 -10 30 -15 30 -5 0 -4 -15 1 -32z"/>
<path d="M2157 1323 c-4 -3 -7 -18 -7 -32 0 -47 -15 -56 -39 -25 -11 14 -21
23 -21 18 0 -5 13 -25 29 -45 21 -25 31 -51 36 -92 4 -31 10 -57 14 -57 11 0
12 70 1 91 -9 15 -7 19 7 19 13 0 14 3 5 8 -8 6 -11 26 -7 65 4 52 -1 67 -18
50z"/>
<path d="M2499 1216 c9 -10 9 -16 1 -21 -6 -4 -9 -14 -5 -23 8 -22 -26 -107
-36 -90 -6 10 -9 8 -10 -7 -1 -11 -3 -24 -4 -30 -2 -5 -4 -19 -5 -30 -1 -13
-3 -15 -7 -7 -7 19 -136 -226 -138 -262 -2 -27 -1 -28 12 -11 7 11 11 28 7 39
-4 17 -3 18 6 6 9 -12 10 -10 5 9 -5 17 -4 22 5 16 9 -5 11 -4 6 3 -4 7 -2 12
3 12 6 0 10 4 8 9 -2 9 75 162 80 157 15 -14 -122 -292 -147 -299 -13 -3 -17
0 -13 9 3 8 9 12 13 9 4 -2 8 6 8 20 0 14 -4 22 -9 19 -5 -3 -9 -10 -9 -15 0
-5 -20 -51 -44 -102 -57 -119 -89 -198 -82 -204 3 -3 10 7 16 23 34 93 47 117
68 127 12 5 22 16 22 22 0 7 25 50 56 96 42 63 61 83 76 81 11 -1 28 4 39 11
17 13 16 14 -17 15 -46 2 -48 4 -26 28 10 10 29 53 42 94 13 41 39 108 57 149
38 83 48 161 22 161 -8 0 -8 -4 0 -14z"/>
<path d="M2180 1053 c1 -14 70 -103 80 -103 16 0 12 10 -25 53 -19 22 -35 44
-35 49 0 4 -4 8 -10 8 -5 0 -10 -3 -10 -7z"/>
<path d="M1964 983 c-63 -105 -239 -464 -275 -561 -17 -48 -46 -110 -63 -138
-29 -48 -34 -52 -89 -63 -32 -7 -60 -18 -64 -26 -5 -16 -121 -75 -145 -75 -8
0 -22 -6 -32 -13 -16 -11 -14 -13 16 -15 18 -1 40 3 48 8 13 9 13 10 0 10 -8
1 -4 6 9 11 13 5 26 7 29 4 3 -3 0 -5 -6 -5 -7 0 -12 -5 -12 -11 0 -8 5 -8 15
1 8 7 13 16 10 20 -2 4 6 12 20 18 l24 11 -20 -34 c-13 -21 -16 -36 -10 -40 6
-3 22 18 36 49 25 54 45 79 45 55 0 -8 6 -7 18 3 38 34 73 31 155 -12 82 -43
87 -44 87 -32 0 4 -29 20 -65 36 -83 36 -95 50 -64 76 13 10 20 19 15 20 -4 0
-2 10 6 23 8 12 31 65 51 117 38 102 220 473 271 555 47 74 48 75 39 75 -5 0
-27 -30 -49 -67z"/>
<path d="M2796 994 c-4 -10 -14 -13 -33 -9 -21 4 -23 3 -8 -3 14 -6 2 -10 -46
-15 -68 -6 -119 -23 -119 -40 0 -6 5 -6 13 0 6 6 19 11 27 11 8 0 33 5 55 11
22 6 50 8 63 4 12 -3 30 1 39 8 12 10 15 10 9 2 -4 -8 -1 -13 9 -13 12 0 14 4
5 19 -8 16 -6 20 8 23 16 3 16 4 0 10 -10 4 -19 1 -22 -8z"/>
<path d="M2554 711 c7 -11 61 -19 201 -29 61 -5 120 -14 132 -20 26 -14 41
-16 28 -3 -21 19 -92 34 -151 32 -35 -1 -82 3 -106 8 -76 17 -109 21 -104 12z"/>
<path d="M1184 454 c-4 -10 -22 -57 -41 -103 -39 -98 -39 -100 -14 -77 11 10
17 24 15 31 -3 7 2 19 10 28 9 9 16 22 16 30 0 8 7 34 15 57 8 24 13 45 10 48
-2 3 -8 -4 -11 -14z"/>
<path d="M1093 195 c-11 -30 -17 -53 -12 -49 5 3 9 0 9 -5 0 -35 -60 31 -61
67 0 26 -1 25 -13 -8 -11 -29 -11 -36 1 -38 7 -2 10 -8 7 -14 -4 -6 -3 -8 2
-5 14 8 38 -9 30 -22 -4 -6 -16 -11 -26 -11 -10 0 -21 -4 -24 -9 -3 -4 6 -6
21 -3 20 4 24 2 18 -9 -5 -8 4 -3 19 10 35 32 58 78 42 84 -6 2 -1 13 14 25
14 12 19 21 12 22 -7 0 -10 5 -7 10 3 6 3 10 -2 10 -4 0 -18 -25 -30 -55z"/>
<path d="M1805 130 c7 -11 75 -34 81 -27 3 3 -16 12 -41 20 -25 9 -43 12 -40
7z"/>
</g>
</svg>
